<svg width="40" height="40" viewBox="0 0 40 40" fill="none" xmlns="http://www.w3.org/2000/svg">
<g clip-path="url(#clip0_81_45)">
<circle cx="20" cy="20" r="20" transform="matrix(-1 0 0 1 40 0)" fill="url(#paint0_radial_81_45)"/>
<circle cx="20" cy="20" r="20" transform="matrix(-1 0 0 1 40 0)" fill="url(#paint1_linear_81_45)" fill-opacity="0.48"/>
<g filter="url(#filter0_d_81_45)">
<path d="M0 19.638C0 22.2465 7.36965 20.7925 11.7333 17.9361C14.9389 15.8377 14.3214 15.6152 19.5515 15.6152C24.9025 15.6152 24.3757 14.806 27.3697 16.3293C31.8229 18.5952 40 22.1923 40 19.638C40 8.79223 31.0457 0 20 0C8.9543 0 0 8.79223 0 19.638Z" fill="url(#paint2_radial_81_45)" shape-rendering="crispEdges"/>
</g>
<path fill-rule="evenodd" clip-rule="evenodd" d="M33.8597 34.419C41.8231 26.7644 42.0735 14.1036 34.419 6.14026C26.7644 -1.82311 14.1036 -2.07349 6.14026 5.58103C-1.82311 13.2356 -2.07349 25.8964 5.58103 33.8597C13.2356 41.8231 25.8964 42.0735 33.8597 34.419ZM33.6077 34.1568C25.7892 41.6722 13.3585 41.4263 5.84319 33.6077C-1.67215 25.7892 -1.42633 13.3585 6.39226 5.84319C14.2108 -1.67216 26.6415 -1.42633 34.1568 6.39226C41.6722 14.2108 41.4263 26.6415 33.6077 34.1568Z" fill="url(#paint3_radial_81_45)"/>
<path fill-rule="evenodd" clip-rule="evenodd" d="M33.8597 34.419C41.8231 26.7644 42.0735 14.1036 34.419 6.14026C26.7644 -1.82311 14.1036 -2.07349 6.14026 5.58103C-1.82311 13.2356 -2.07349 25.8964 5.58103 33.8597C13.2356 41.8231 25.8964 42.0735 33.8597 34.419ZM33.6077 34.1568C25.7892 41.6722 13.3585 41.4263 5.84319 33.6077C-1.67215 25.7892 -1.42633 13.3585 6.39226 5.84319C14.2108 -1.67216 26.6415 -1.42633 34.1568 6.39226C41.6722 14.2108 41.4263 26.6415 33.6077 34.1568Z" fill="url(#paint4_linear_81_45)" fill-opacity="0.45"/>
<g filter="url(#filter1_d_81_45)">
<path d="M34.776 21.6175C35.8742 20.8188 35.8742 19.1812 34.776 18.3825L23.6763 10.3101C22.3544 9.34866 20.5 10.293 20.5 11.9275L20.5 17.9215L5 17.9215C3.89543 17.9215 3 18.8521 3 20C3 21.1479 3.89543 22.0785 5 22.0785L20.5 22.0785V28.0725C20.5 29.707 22.3544 30.6513 23.6763 29.6899L34.776 21.6175Z" fill="url(#paint5_linear_81_45)"/>
</g>
</g>
<defs>
<filter id="filter0_d_81_45" x="-15.3" y="-0.3" width="70.6" height="51.6" filterUnits="userSpaceOnUse" color-interpolation-filters="sRGB">
<feFlood flood-opacity="0" result="BackgroundImageFix"/>
<feColorMatrix in="SourceAlpha" type="matrix" values="0 0 0 0 0 0 0 0 0 0 0 0 0 0 0 0 0 0 127 0" result="hardAlpha"/>
<feOffset dy="15"/>
<feGaussianBlur stdDeviation="7.65"/>
<feComposite in2="hardAlpha" operator="out"/>
<feColorMatrix type="matrix" values="0 0 0 0 0 0 0 0 0 0 0 0 0 0 0 0 0 0 0.4 0"/>
<feBlend mode="normal" in2="BackgroundImageFix" result="effect1_dropShadow_81_45"/>
<feBlend mode="normal" in="SourceGraphic" in2="effect1_dropShadow_81_45" result="shape"/>
</filter>
<filter id="filter1_d_81_45" x="1" y="9.92395" width="36.5996" height="24.1521" filterUnits="userSpaceOnUse" color-interpolation-filters="sRGB">
<feFlood flood-opacity="0" result="BackgroundImageFix"/>
<feColorMatrix in="SourceAlpha" type="matrix" values="0 0 0 0 0 0 0 0 0 0 0 0 0 0 0 0 0 0 127 0" result="hardAlpha"/>
<feOffset dy="2"/>
<feGaussianBlur stdDeviation="1"/>
<feComposite in2="hardAlpha" operator="out"/>
<feColorMatrix type="matrix" values="0 0 0 0 0 0 0 0 0 0 0 0 0 0 0 0 0 0 0.25 0"/>
<feBlend mode="normal" in2="BackgroundImageFix" result="effect1_dropShadow_81_45"/>
<feBlend mode="normal" in="SourceGraphic" in2="effect1_dropShadow_81_45" result="shape"/>
</filter>
<radialGradient id="paint0_radial_81_45" cx="0" cy="0" r="1" gradientUnits="userSpaceOnUse" gradientTransform="translate(20 40) rotate(-90) scale(25.0909)">
<stop offset="0.144231" stop-color="#09D3F7"/>
<stop offset="0.519231" stop-color="#0F6FA7"/>
<stop offset="1" stop-color="#013D64"/>
</radialGradient>
<linearGradient id="paint1_linear_81_45" x1="20" y1="0" x2="20" y2="40" gradientUnits="userSpaceOnUse">
<stop stop-color="white"/>
<stop offset="0.692308" stop-color="white" stop-opacity="0"/>
</linearGradient>
<radialGradient id="paint2_radial_81_45" cx="0" cy="0" r="1" gradientUnits="userSpaceOnUse" gradientTransform="translate(20 20.7092) rotate(89.8166) scale(24.6368 33.5181)">
<stop offset="0.592945" stop-color="white" stop-opacity="0"/>
<stop offset="0.693017" stop-color="#D9D9D9" stop-opacity="0.23"/>
<stop offset="0.889975" stop-color="#D9D9D9"/>
<stop offset="1" stop-color="white"/>
</radialGradient>
<radialGradient id="paint3_radial_81_45" cx="0" cy="0" r="1" gradientUnits="userSpaceOnUse" gradientTransform="translate(6.14026 5.58103) rotate(46.1329) scale(25.0909)">
<stop offset="1" stop-color="#013D64"/>
</radialGradient>
<linearGradient id="paint4_linear_81_45" x1="33.8597" y1="34.419" x2="6.14026" y2="5.58103" gradientUnits="userSpaceOnUse">
<stop stop-color="white"/>
<stop offset="0.692308" stop-color="white" stop-opacity="0"/>
</linearGradient>
<linearGradient id="paint5_linear_81_45" x1="17" y1="16.5" x2="-7" y2="52.5" gradientUnits="userSpaceOnUse">
<stop stop-color="white"/>
<stop offset="1" stop-color="#999999"/>
</linearGradient>
<clipPath id="clip0_81_45">
<rect width="40" height="40" fill="white" transform="matrix(-1 0 0 1 40 0)"/>
</clipPath>
</defs>
</svg>
