<svg width="26" height="32" viewBox="0 0 26 32" fill="none" xmlns="http://www.w3.org/2000/svg">
<path d="M1 1H18.28L25 8V31H1V1Z" fill="white"/>
<path d="M26 7V32H0V0H19.2588L26 7ZM0.962891 1V31H25.0371V8L18.2959 1H0.962891Z" fill="url(#paint0_linear_190_161)"/>
<path d="M17 9V1H18L25 8V9H17Z" fill="#BFBFBF"/>
<path d="M18 8V1L25 8H18Z" fill="white"/>
<line x1="5" y1="5" x2="17" y2="5" stroke="#47A0D5" stroke-width="2"/>
<line x1="3" y1="11" x2="13" y2="11" stroke="#C8C8C8" stroke-width="2"/>
<line x1="3" y1="14.5" x2="13" y2="14.5" stroke="#C8C8C8"/>
<line x1="3" y1="18" x2="13" y2="18" stroke="#C8C8C8" stroke-width="2"/>
<line x1="3" y1="22.5" x2="23" y2="22.5" stroke="#C8C8C8"/>
<line x1="3" y1="26" x2="23" y2="26" stroke="#C8C8C8" stroke-width="2"/>
<rect x="15" y="12" width="8" height="8" fill="url(#paint1_linear_190_161)"/>
<defs>
<linearGradient id="paint0_linear_190_161" x1="24.5227" y1="-10.5455" x2="-8.02761" y2="32.471" gradientUnits="userSpaceOnUse">
<stop stop-color="#D9D9D9"/>
<stop offset="1" stop-color="#737373"/>
</linearGradient>
<linearGradient id="paint1_linear_190_161" x1="19" y1="12" x2="7.20776" y2="22.6361" gradientUnits="userSpaceOnUse">
<stop stop-color="#47A0D5"/>
<stop offset="1" stop-color="#25536F"/>
</linearGradient>
</defs>
</svg>
