<svg width="19" height="22" viewBox="0 0 19 22" fill="none" xmlns="http://www.w3.org/2000/svg">
<rect x="0.25" y="0.25" width="15.5" height="19.5" rx="0.75" fill="url(#paint0_linear_187_29)" stroke="#BF9B40" stroke-width="0.5"/>
<g style="mix-blend-mode:darken">
<path d="M4 3.28078C4 2.63021 4.61139 2.15285 5.24254 2.31063L11.2425 3.81063C11.6877 3.92193 12 4.32191 12 4.78078V20H5C4.44772 20 4 19.5523 4 19V3.28078Z" fill="url(#paint1_radial_187_29)"/>
</g>
<path d="M0.25 1.24707C0.25 0.767259 0.694701 0.410563 1.16309 0.514648L8.16309 2.07031C8.50588 2.1467 8.74981 2.45056 8.75 2.80176V20.7529C8.75 21.2327 8.3053 21.5894 7.83691 21.4854L0.836914 19.9297C0.494121 19.8533 0.250191 19.5494 0.25 19.1982V1.24707Z" fill="url(#paint2_linear_187_29)" stroke="#BF9B40" stroke-width="0.5"/>
<mask id="path-4-inside-1_187_29" fill="white">
<path d="M15.0526 10C15.3288 10 15.5526 10.2239 15.5526 10.5V15.1222C15.5526 15.1775 15.5974 15.2222 15.6526 15.2222H17.9504C18.3712 15.2222 18.6038 15.7105 18.3386 16.0373L13.8883 21.5215C13.6881 21.7681 13.3119 21.7681 13.1117 21.5215L8.6614 16.0373C8.3962 15.7105 8.62878 15.2222 9.04965 15.2222H11.3474C11.4026 15.2222 11.4474 15.1775 11.4474 15.1222V10.5C11.4474 10.2239 11.6712 10 11.9474 10H15.0526Z"/>
</mask>
<path d="M15.0526 10C15.3288 10 15.5526 10.2239 15.5526 10.5V15.1222C15.5526 15.1775 15.5974 15.2222 15.6526 15.2222H17.9504C18.3712 15.2222 18.6038 15.7105 18.3386 16.0373L13.8883 21.5215C13.6881 21.7681 13.3119 21.7681 13.1117 21.5215L8.6614 16.0373C8.3962 15.7105 8.62878 15.2222 9.04965 15.2222H11.3474C11.4026 15.2222 11.4474 15.1775 11.4474 15.1222V10.5C11.4474 10.2239 11.6712 10 11.9474 10H15.0526Z" fill="url(#paint3_linear_187_29)"/>
<g clip-path="url(#paint4_diamond_187_29_clip_path)" data-figma-skip-parse="true" mask="url(#path-4-inside-1_187_29)"><g transform="matrix(0 0.007 -0.0165016 0 13.5 15)"><rect x="0" y="0" width="1071.43" height="363.6" fill="url(#paint4_diamond_187_29)" opacity="1" shape-rendering="crispEdges"/><rect x="0" y="0" width="1071.43" height="363.6" transform="scale(1 -1)" fill="url(#paint4_diamond_187_29)" opacity="1" shape-rendering="crispEdges"/><rect x="0" y="0" width="1071.43" height="363.6" transform="scale(-1 1)" fill="url(#paint4_diamond_187_29)" opacity="1" shape-rendering="crispEdges"/><rect x="0" y="0" width="1071.43" height="363.6" transform="scale(-1)" fill="url(#paint4_diamond_187_29)" opacity="1" shape-rendering="crispEdges"/></g></g><path d="M8.6614 16.0373L8.27315 16.3523L8.6614 16.0373ZM13.1117 21.5215L12.7235 21.8366L13.1117 21.5215ZM18.3386 16.0373L17.9503 15.7222L18.3386 16.0373ZM15.5526 10.5H15.0526V15.1222H15.5526H16.0526V10.5H15.5526ZM15.6526 15.2222V15.7222H17.9504V15.2222V14.7222H15.6526V15.2222ZM18.3386 16.0373L17.9503 15.7222L13.5 21.2065L13.8883 21.5215L14.2765 21.8366L18.7269 16.3523L18.3386 16.0373ZM13.1117 21.5215L13.5 21.2065L9.04965 15.7222L8.6614 16.0373L8.27315 16.3523L12.7235 21.8366L13.1117 21.5215ZM9.04965 15.2222V15.7222H11.3474V15.2222V14.7222H9.04965V15.2222ZM11.4474 15.1222H11.9474V10.5H11.4474H10.9474V15.1222H11.4474ZM11.9474 10V10.5H15.0526V10V9.5H11.9474V10ZM11.4474 10.5H11.9474L11.9474 10.5V10V9.5C11.3951 9.5 10.9474 9.94771 10.9474 10.5H11.4474ZM11.3474 15.2222V15.7222C11.6787 15.7222 11.9474 15.4536 11.9474 15.1222H11.4474H10.9474C10.9474 14.9013 11.1264 14.7222 11.3474 14.7222V15.2222ZM8.6614 16.0373L9.04965 15.7222L9.04965 15.7222V15.2222V14.7222C8.2079 14.7222 7.74275 15.6987 8.27315 16.3523L8.6614 16.0373ZM13.8883 21.5215L13.5 21.2065L13.5 21.2065L13.1117 21.5215L12.7235 21.8366C13.1237 22.3298 13.8763 22.3298 14.2765 21.8366L13.8883 21.5215ZM17.9504 15.2222V15.7222L17.9503 15.7222L18.3386 16.0373L18.7269 16.3523C19.2572 15.6987 18.7921 14.7222 17.9504 14.7222V15.2222ZM15.5526 15.1222H15.0526C15.0526 15.4536 15.3213 15.7222 15.6526 15.7222V15.2222V14.7222C15.8736 14.7222 16.0526 14.9013 16.0526 15.1222H15.5526ZM15.5526 10.5H16.0526C16.0526 9.94772 15.6049 9.5 15.0526 9.5V10V10.5L15.0526 10.5H15.5526Z" data-figma-gradient-fill="{&#34;type&#34;:&#34;GRADIENT_DIAMOND&#34;,&#34;stops&#34;:[{&#34;color&#34;:{&#34;r&#34;:0.13652518391609192,&#34;g&#34;:0.54882466793060303,&#34;b&#34;:0.81681942939758301,&#34;a&#34;:1.0},&#34;position&#34;:0.0},{&#34;color&#34;:{&#34;r&#34;:0.075236864387989044,&#34;g&#34;:0.38669866323471069,&#34;b&#34;:0.58914887905120850,&#34;a&#34;:1.0},&#34;position&#34;:1.0}],&#34;stopsVar&#34;:[{&#34;color&#34;:{&#34;r&#34;:0.13652518391609192,&#34;g&#34;:0.54882466793060303,&#34;b&#34;:0.81681942939758301,&#34;a&#34;:1.0},&#34;position&#34;:0.0},{&#34;color&#34;:{&#34;r&#34;:0.075236864387989044,&#34;g&#34;:0.38669866323471069,&#34;b&#34;:0.58914887905120850,&#34;a&#34;:1.0},&#34;position&#34;:1.0}],&#34;transform&#34;:{&#34;m00&#34;:6.6620801486127340e-14,&#34;m01&#34;:-33.003299713134766,&#34;m02&#34;:30.001647949218750,&#34;m10&#34;:14.000000953674316,&#34;m11&#34;:7.7179006187279992e-14,&#34;m12&#34;:8.0},&#34;opacity&#34;:1.0,&#34;blendMode&#34;:&#34;NORMAL&#34;,&#34;visible&#34;:true}" mask="url(#path-4-inside-1_187_29)"/>
<defs>
<clipPath id="paint4_diamond_187_29_clip_path"><path d="M8.6614 16.0373L8.27315 16.3523L8.6614 16.0373ZM13.1117 21.5215L12.7235 21.8366L13.1117 21.5215ZM18.3386 16.0373L17.9503 15.7222L18.3386 16.0373ZM15.5526 10.5H15.0526V15.1222H15.5526H16.0526V10.5H15.5526ZM15.6526 15.2222V15.7222H17.9504V15.2222V14.7222H15.6526V15.2222ZM18.3386 16.0373L17.9503 15.7222L13.5 21.2065L13.8883 21.5215L14.2765 21.8366L18.7269 16.3523L18.3386 16.0373ZM13.1117 21.5215L13.5 21.2065L9.04965 15.7222L8.6614 16.0373L8.27315 16.3523L12.7235 21.8366L13.1117 21.5215ZM9.04965 15.2222V15.7222H11.3474V15.2222V14.7222H9.04965V15.2222ZM11.4474 15.1222H11.9474V10.5H11.4474H10.9474V15.1222H11.4474ZM11.9474 10V10.5H15.0526V10V9.5H11.9474V10ZM11.4474 10.5H11.9474L11.9474 10.5V10V9.5C11.3951 9.5 10.9474 9.94771 10.9474 10.5H11.4474ZM11.3474 15.2222V15.7222C11.6787 15.7222 11.9474 15.4536 11.9474 15.1222H11.4474H10.9474C10.9474 14.9013 11.1264 14.7222 11.3474 14.7222V15.2222ZM8.6614 16.0373L9.04965 15.7222L9.04965 15.7222V15.2222V14.7222C8.2079 14.7222 7.74275 15.6987 8.27315 16.3523L8.6614 16.0373ZM13.8883 21.5215L13.5 21.2065L13.5 21.2065L13.1117 21.5215L12.7235 21.8366C13.1237 22.3298 13.8763 22.3298 14.2765 21.8366L13.8883 21.5215ZM17.9504 15.2222V15.7222L17.9503 15.7222L18.3386 16.0373L18.7269 16.3523C19.2572 15.6987 18.7921 14.7222 17.9504 14.7222V15.2222ZM15.5526 15.1222H15.0526C15.0526 15.4536 15.3213 15.7222 15.6526 15.7222V15.2222V14.7222C15.8736 14.7222 16.0526 14.9013 16.0526 15.1222H15.5526ZM15.5526 10.5H16.0526C16.0526 9.94772 15.6049 9.5 15.0526 9.5V10V10.5L15.0526 10.5H15.5526Z" mask="url(#path-4-inside-1_187_29)"/></clipPath><linearGradient id="paint0_linear_187_29" x1="15.5" y1="-0.5" x2="1" y2="19.5" gradientUnits="userSpaceOnUse">
<stop stop-color="#FFE5A5"/>
<stop offset="1" stop-color="#A99665"/>
</linearGradient>
<radialGradient id="paint1_radial_187_29" cx="0" cy="0" r="1" gradientUnits="userSpaceOnUse" gradientTransform="translate(4.5 13.5) rotate(-42.2737) scale(14.8661 24.0042)">
<stop stop-color="#907636"/>
<stop offset="1" stop-color="#666666" stop-opacity="0"/>
</radialGradient>
<linearGradient id="paint2_linear_187_29" x1="5" y1="3" x2="-3.19426" y2="17.2285" gradientUnits="userSpaceOnUse">
<stop stop-color="#FFE5A5"/>
<stop offset="1" stop-color="#A99665"/>
</linearGradient>
<linearGradient id="paint3_linear_187_29" x1="17" y1="7.5" x2="11" y2="21.5" gradientUnits="userSpaceOnUse">
<stop stop-color="#B0E1FF"/>
<stop offset="0.488935" stop-color="#47A0D5"/>
</linearGradient>
<linearGradient id="paint4_diamond_187_29" x1="0" y1="0" x2="500" y2="500" gradientUnits="userSpaceOnUse">
<stop stop-color="#238CD0"/>
<stop offset="1" stop-color="#136396"/>
</linearGradient>
</defs>
</svg>
