<svg width="100" height="100" viewBox="0 0 100 100" fill="none" xmlns="http://www.w3.org/2000/svg">
<g clip-path="url(#clip0_37_2)">
<circle cx="50" cy="50" r="50" fill="#202020"/>
<circle cx="50" cy="50" r="49" fill="#EBEBEB"/>
<circle cx="50" cy="50" r="46" fill="#202020"/>
<circle cx="50" cy="50" r="45" fill="url(#paint0_linear_37_2)"/>
<path d="M42.1364 64.4773V63.5909C42.1591 59.4773 42.5455 56.2045 43.2955 53.7727C44.0682 51.3409 45.1591 49.3864 46.5682 47.9091C47.9773 46.4091 49.6932 45.0341 51.7159 43.7841C53.1023 42.9205 54.3409 41.9773 55.4318 40.9545C56.5455 39.9091 57.4205 38.75 58.0568 37.4773C58.6932 36.1818 59.0114 34.7386 59.0114 33.1477C59.0114 31.3523 58.5909 29.7955 57.75 28.4773C56.9091 27.1591 55.7727 26.1364 54.3409 25.4091C52.9318 24.6818 51.3523 24.3182 49.6023 24.3182C47.9886 24.3182 46.4545 24.6705 45 25.375C43.5682 26.0568 42.375 27.1023 41.4205 28.5114C40.4886 29.8977 39.9659 31.6591 39.8523 33.7955H27.7159C27.8295 29.4773 28.875 25.8636 30.8523 22.9545C32.8523 20.0455 35.4886 17.8636 38.7614 16.4091C42.0568 14.9545 45.6932 14.2273 49.6705 14.2273C54.0114 14.2273 57.8295 14.9886 61.125 16.5114C64.4432 18.0341 67.0227 20.2045 68.8636 23.0227C70.7273 25.8182 71.6591 29.1364 71.6591 32.9773C71.6591 35.5682 71.2386 37.8864 70.3977 39.9318C69.5795 41.9773 68.4091 43.7955 66.8864 45.3864C65.3636 46.9773 63.5568 48.3977 61.4659 49.6477C59.625 50.7841 58.1136 51.9659 56.9318 53.1932C55.7727 54.4205 54.9091 55.8636 54.3409 57.5227C53.7955 59.1591 53.5114 61.1818 53.4886 63.5909V64.4773H42.1364ZM48.0682 85.75C46.0227 85.75 44.2614 85.0227 42.7841 83.5682C41.3068 82.1136 40.5682 80.3409 40.5682 78.25C40.5682 76.2045 41.3068 74.4545 42.7841 73C44.2614 71.5455 46.0227 70.8182 48.0682 70.8182C50.0909 70.8182 51.8409 71.5455 53.3182 73C54.8182 74.4545 55.5682 76.2045 55.5682 78.25C55.5682 79.6364 55.2159 80.8977 54.5114 82.0341C53.8295 83.1705 52.9205 84.0795 51.7841 84.7614C50.6705 85.4205 49.4318 85.75 48.0682 85.75Z" fill="url(#paint1_linear_37_2)"/>
</g>
<defs>
<linearGradient id="paint0_linear_37_2" x1="50" y1="5" x2="74.4565" y2="95" gradientUnits="userSpaceOnUse">
<stop stop-color="#84B5F5"/>
<stop offset="0.423077" stop-color="#1466D2"/>
<stop offset="0.865385" stop-color="#12407B"/>
</linearGradient>
<linearGradient id="paint1_linear_37_2" x1="11.5" y1="3" x2="89.5" y2="106" gradientUnits="userSpaceOnUse">
<stop offset="0.314219" stop-color="white"/>
<stop offset="1" stop-color="#999999"/>
</linearGradient>
<clipPath id="clip0_37_2">
<rect width="100" height="100" fill="white"/>
</clipPath>
</defs>
</svg>
