<svg width="20" height="18" viewBox="0 0 20 18" fill="none" xmlns="http://www.w3.org/2000/svg">
<rect x="-0.25" y="-0.25" width="14.5" height="19.5" rx="0.75" transform="matrix(4.37114e-08 -1 -1 -4.37114e-08 19.5 15.5)" fill="url(#paint0_linear_189_104)" stroke="#BF9B40" stroke-width="0.5"/>
<path d="M8.75 1C8.75 0.585787 8.41421 0.25 8 0.25L1 0.25C0.585787 0.25 0.25 0.585786 0.25 1L0.25 1.75L8 1.75C8.41421 1.75 8.75 1.41421 8.75 1Z" fill="#BF9B40" stroke="#BF9B40" stroke-width="0.5"/>
<path d="M8 1.5C8.27614 1.5 8.5 1.27614 8.5 1V1C8.5 0.723858 8.27614 0.5 8 0.5L1 0.5C0.723858 0.5 0.5 0.723857 0.5 1V1C0.5 1.27614 0.723858 1.5 1 1.5L8 1.5Z" fill="url(#paint1_linear_189_104)"/>
<path d="M4 8.75H16C16.4142 8.75 16.75 9.08579 16.75 9.5V16.5C16.75 16.9142 16.4142 17.25 16 17.25H14C13.5858 17.25 13.25 16.9142 13.25 16.5V13.0996C13.2498 12.4094 12.6902 11.8496 12 11.8496H8C7.30977 11.8496 6.75021 12.4094 6.75 13.0996V16.5C6.75 16.9142 6.41421 17.25 6 17.25H4C3.58579 17.25 3.25 16.9142 3.25 16.5V9.5C3.25 9.08579 3.58579 8.75 4 8.75Z" fill="url(#paint2_radial_189_104)" stroke="url(#paint3_radial_189_104)" stroke-width="0.5"/>
<defs>
<linearGradient id="paint0_linear_189_104" x1="14.5" y1="19" x2="0.809911" y2="-2.34032" gradientUnits="userSpaceOnUse">
<stop offset="0.317826" stop-color="#FFE5A5"/>
<stop offset="0.786598" stop-color="#A99665"/>
</linearGradient>
<linearGradient id="paint1_linear_189_104" x1="3.5" y1="0.5" x2="1.5" y2="0.75" gradientUnits="userSpaceOnUse">
<stop stop-color="#D9D9D9"/>
<stop offset="1" stop-color="#36BE55"/>
</linearGradient>
<radialGradient id="paint2_radial_189_104" cx="0" cy="0" r="1" gradientUnits="userSpaceOnUse" gradientTransform="translate(6 8.5) rotate(74.0546) scale(7.28011 11.3246)">
<stop offset="0.144231" stop-color="white"/>
<stop offset="0.504808" stop-color="#8CCFF8"/>
<stop offset="1" stop-color="#47A1D7"/>
</radialGradient>
<radialGradient id="paint3_radial_189_104" cx="0" cy="0" r="1" gradientUnits="userSpaceOnUse" gradientTransform="translate(6.5 7.5) rotate(45) scale(20.5061 31.8984)">
<stop offset="0.0637938" stop-color="white"/>
<stop offset="0.304522" stop-color="#166CA3"/>
<stop offset="0.649395" stop-color="#166CA3"/>
</radialGradient>
</defs>
</svg>
