<svg width="6" height="3" viewBox="0 0 6 3" fill="none" xmlns="http://www.w3.org/2000/svg">
<mask id="path-1-inside-1_115_77" fill="white">
<path d="M5.90039 0C5.95531 0.000209965 5.99979 0.0446907 6 0.0996094V2.90039C5.99979 2.95531 5.95531 2.99979 5.90039 3H0.0996094C0.0446907 2.99979 0.000210019 2.95531 0 2.90039V0.0996094C0.000209965 0.0446907 0.0446907 0.000210019 0.0996094 0H5.90039ZM1.09961 0.75C1.04469 0.75021 1.00021 0.794691 1 0.849609V2.15039C1.00021 2.20531 1.04469 2.24979 1.09961 2.25H4.90039C4.95531 2.24979 4.99979 2.20531 5 2.15039V0.849609C4.99979 0.794691 4.95531 0.75021 4.90039 0.75H1.09961Z"/>
</mask>
<path d="M5.90039 0C5.95531 0.000209965 5.99979 0.0446907 6 0.0996094V2.90039C5.99979 2.95531 5.95531 2.99979 5.90039 3H0.0996094C0.0446907 2.99979 0.000210019 2.95531 0 2.90039V0.0996094C0.000209965 0.0446907 0.0446907 0.000210019 0.0996094 0H5.90039ZM1.09961 0.75C1.04469 0.75021 1.00021 0.794691 1 0.849609V2.15039C1.00021 2.20531 1.04469 2.24979 1.09961 2.25H4.90039C4.95531 2.24979 4.99979 2.20531 5 2.15039V0.849609C4.99979 0.794691 4.95531 0.75021 4.90039 0.75H1.09961Z" fill="white"/>
<path d="M5.90039 0L5.90058 -0.05H5.90039V0ZM6 0.0996094L6.05 0.0996094L6.05 0.0994182L6 0.0996094ZM6 2.90039L6.05 2.90058V2.90039H6ZM5.90039 3L5.90039 3.05L5.90058 3.05L5.90039 3ZM0.0996094 3L0.0994182 3.05H0.0996094V3ZM0 2.90039L-0.0500004 2.90039L-0.0499996 2.90058L0 2.90039ZM0 0.0996094L-0.05 0.0994182V0.0996094H0ZM0.0996094 0L0.0996094 -0.0500004L0.0994182 -0.0499996L0.0996094 0ZM1.09961 0.75L1.09961 0.7L1.09942 0.7L1.09961 0.75ZM1 0.849609L0.95 0.849418V0.849609H1ZM1 2.15039L0.95 2.15039L0.95 2.15058L1 2.15039ZM1.09961 2.25L1.09942 2.3H1.09961V2.25ZM4.90039 2.25L4.90039 2.3L4.90058 2.3L4.90039 2.25ZM5 2.15039L5.05 2.15058V2.15039H5ZM5 0.849609L5.05 0.849609L5.05 0.849418L5 0.849609ZM4.90039 0.75L4.90058 0.7H4.90039V0.75ZM5.90039 0L5.9002 0.0499996C5.92765 0.0501046 5.9499 0.0723467 5.95 0.0998006L6 0.0996094L6.05 0.0994182C6.04968 0.0170347 5.98297 -0.0496847 5.90058 -0.0499996L5.90039 0ZM6 0.0996094H5.95V2.90039H6H6.05V0.0996094H6ZM6 2.90039L5.95 2.9002C5.9499 2.92765 5.92765 2.9499 5.9002 2.95L5.90039 3L5.90058 3.05C5.98297 3.04968 6.04968 2.98297 6.05 2.90058L6 2.90039ZM5.90039 3V2.95H0.0996094V3V3.05H5.90039V3ZM0.0996094 3L0.0998005 2.95C0.0723467 2.9499 0.0501046 2.92765 0.0499996 2.9002L0 2.90039L-0.0499996 2.90058C-0.0496846 2.98297 0.0170346 3.04968 0.0994182 3.05L0.0996094 3ZM0 2.90039H0.05V0.0996094H0H-0.05V2.90039H0ZM0 0.0996094L0.0499996 0.0998005C0.0501046 0.0723467 0.0723467 0.0501046 0.0998006 0.0499996L0.0996094 0L0.0994182 -0.0499996C0.0170347 -0.0496846 -0.0496847 0.0170346 -0.0499996 0.0994182L0 0.0996094ZM0.0996094 0V0.05H5.90039V0V-0.05H0.0996094V0ZM1.09961 0.75L1.09942 0.7C1.01703 0.700315 0.950315 0.767035 0.95 0.849418L1 0.849609L1.05 0.849801C1.0501 0.822347 1.07235 0.800105 1.0998 0.8L1.09961 0.75ZM1 0.849609H0.95V2.15039H1H1.05V0.849609H1ZM1 2.15039L0.95 2.15058C0.950315 2.23297 1.01703 2.29968 1.09942 2.3L1.09961 2.25L1.0998 2.2C1.07235 2.1999 1.0501 2.17765 1.05 2.1502L1 2.15039ZM1.09961 2.25V2.3H4.90039V2.25V2.2H1.09961V2.25ZM4.90039 2.25L4.90058 2.3C4.98297 2.29968 5.04968 2.23297 5.05 2.15058L5 2.15039L4.95 2.1502C4.9499 2.17765 4.92765 2.1999 4.9002 2.2L4.90039 2.25ZM5 2.15039H5.05V0.849609H5H4.95V2.15039H5ZM5 0.849609L5.05 0.849418C5.04968 0.767035 4.98297 0.700315 4.90058 0.7L4.90039 0.75L4.9002 0.8C4.92765 0.800105 4.9499 0.822347 4.95 0.849801L5 0.849609ZM4.90039 0.75V0.7H1.09961V0.75V0.8H4.90039V0.75Z" fill="#595959" mask="url(#path-1-inside-1_115_77)"/>
</svg>
