<svg width="24" height="33" viewBox="0 0 24 33" fill="none" xmlns="http://www.w3.org/2000/svg">
<mask id="path-1-inside-1_190_170" fill="white">
<path d="M17.3154 0.719414C17.3154 0.12749 17.9714 -0.211485 18.4401 0.146601C20.1818 1.47827 22.799 3.9924 23.6762 6.63776C24.4047 8.83461 23.6763 17.1187 23.6762 17.622C23.6762 18.1224 23.2959 18.6232 22.9157 18.6232C22.9157 17.6224 22.6155 12.2884 21.855 9.78643C21.4837 8.56603 19.742 7.73618 19.6695 8.46847C19.5969 9.20075 19.5969 24.7933 19.5969 24.7933C19.6446 25.0794 19.6695 25.3741 19.6695 25.6772C19.6694 29.7214 15.2663 33 9.83473 33C4.40316 33 1.01374e-05 28.2569 0 24.2126C0 20.1683 4.37099 17.622 9.83473 18.3543C12.8418 18.7573 15.5168 19.7112 17.3154 21.1604V0.719414Z"/>
</mask>
<g filter="url(#filter0_ii_190_170)">
<path d="M17.3154 0.719414C17.3154 0.12749 17.9714 -0.211485 18.4401 0.146601C20.1818 1.47827 22.799 3.9924 23.6762 6.63776C24.4047 8.83461 23.6763 17.1187 23.6762 17.622C23.6762 18.1224 23.2959 18.6232 22.9157 18.6232C22.9157 17.6224 22.6155 12.2884 21.855 9.78643C21.4837 8.56603 19.742 7.73618 19.6695 8.46847C19.5969 9.20075 19.5969 24.7933 19.5969 24.7933C19.6446 25.0794 19.6695 25.3741 19.6695 25.6772C19.6694 29.7214 15.2663 33 9.83473 33C4.40316 33 1.01374e-05 28.2569 0 24.2126C0 20.1683 4.37099 17.622 9.83473 18.3543C12.8418 18.7573 15.5168 19.7112 17.3154 21.1604V0.719414Z" fill="#3B9FDB"/>
</g>
<g clip-path="url(#paint0_diamond_190_170_clip_path)" data-figma-skip-parse="true" mask="url(#path-1-inside-1_190_170)"><g transform="matrix(-0.027683 0.0172087 -0.0118891 -0.0193248 27.6829 5.17319)"><rect x="0" y="0" width="1191.8" height="986.251" fill="url(#paint0_diamond_190_170)" opacity="1" shape-rendering="crispEdges"/><rect x="0" y="0" width="1191.8" height="986.251" transform="scale(1 -1)" fill="url(#paint0_diamond_190_170)" opacity="1" shape-rendering="crispEdges"/><rect x="0" y="0" width="1191.8" height="986.251" transform="scale(-1 1)" fill="url(#paint0_diamond_190_170)" opacity="1" shape-rendering="crispEdges"/><rect x="0" y="0" width="1191.8" height="986.251" transform="scale(-1)" fill="url(#paint0_diamond_190_170)" opacity="1" shape-rendering="crispEdges"/></g></g><path d="M18.4401 0.146601L18.7438 -0.250604L18.7436 -0.250733L18.4401 0.146601ZM23.6762 6.63776L24.1508 6.48038L23.6762 6.63776ZM23.6762 17.622L23.1762 17.6219V17.622H23.6762ZM22.9157 18.6232H22.4157V19.1232H22.9157V18.6232ZM21.855 9.78643L22.3333 9.64102L22.3333 9.64093L21.855 9.78643ZM19.5969 24.7933H19.0969V24.8347L19.1037 24.8755L19.5969 24.7933ZM19.6695 25.6772L20.1695 25.6772V25.6772H19.6695ZM0 24.2126L-0.5 24.2126L-0.5 24.2126L0 24.2126ZM9.83473 18.3543L9.90115 17.8587L9.90115 17.8587L9.83473 18.3543ZM17.3154 21.1604L17.0016 21.5498L17.8154 22.2055V21.1604H17.3154ZM17.3154 0.719414H17.8154C17.8154 0.52044 18.0135 0.449929 18.1366 0.543935L18.4401 0.146601L18.7436 -0.250733C17.9292 -0.872898 16.8154 -0.26546 16.8154 0.719414H17.3154ZM18.4401 0.146601L18.1364 0.543807C18.9855 1.19301 20.0496 2.132 21.0055 3.22817C21.9651 4.32848 22.7922 5.56048 23.2016 6.79513L23.6762 6.63776L24.1508 6.48038C23.683 5.06968 22.7629 3.72193 21.7592 2.57092C20.7518 1.41577 19.6364 0.431858 18.7438 -0.250604L18.4401 0.146601ZM23.6762 6.63776L23.2016 6.79513C23.3582 7.26722 23.4496 8.12944 23.4838 9.22567C23.5174 10.3026 23.4951 11.5469 23.4498 12.7461C23.4045 13.944 23.3365 15.0903 23.2797 15.9701C23.2243 16.8281 23.1762 17.4747 23.1762 17.6219L23.6762 17.622L24.1762 17.6221C24.1762 17.5177 24.2192 16.94 24.2776 16.0345C24.3347 15.1508 24.4033 13.9945 24.4491 12.7838C24.4948 11.5745 24.518 10.3044 24.4833 9.19445C24.4492 8.10383 24.3585 7.10672 24.1508 6.48038L23.6762 6.63776ZM23.6762 17.622H23.1762C23.1762 17.7521 23.1238 17.8979 23.0404 18.0078C22.948 18.1295 22.8884 18.1232 22.9157 18.1232V18.6232V19.1232C23.3232 19.1232 23.6439 18.8665 23.8367 18.6127C24.0384 18.3471 24.1762 17.9924 24.1762 17.622H23.6762ZM22.9157 18.6232H23.4157C23.4157 18.1004 23.3391 16.4991 23.1682 14.72C22.9981 12.9484 22.7296 10.9447 22.3333 9.64102L21.855 9.78643L21.3766 9.93185C21.7408 11.1302 22.0027 13.0444 22.1728 14.8156C22.3422 16.5791 22.4157 18.1452 22.4157 18.6232H22.9157ZM21.855 9.78643L22.3333 9.64093C22.0988 8.86987 21.4583 8.26723 20.8901 7.95651C20.6092 7.8029 20.2801 7.68365 19.9723 7.69414C19.8125 7.69959 19.6192 7.74202 19.4533 7.87702C19.2777 8.02001 19.1918 8.21872 19.1719 8.41916L19.6695 8.46847L20.167 8.51777C20.1653 8.53515 20.1497 8.5996 20.0846 8.65258C20.0293 8.69756 19.9869 8.69422 20.0064 8.69356C20.0572 8.69183 20.2003 8.71901 20.4103 8.83387C20.824 9.06011 21.2399 9.4826 21.3766 9.93194L21.855 9.78643ZM19.6695 8.46847L19.1719 8.41916C19.1508 8.63245 19.1376 9.78133 19.1275 11.3249C19.1173 12.8907 19.1105 14.9093 19.106 16.9043C19.1014 18.8995 19.0992 20.8717 19.098 22.3451C19.0975 23.0818 19.0972 23.6938 19.097 24.1217C19.097 24.3356 19.0969 24.5035 19.0969 24.6179C19.0969 24.6751 19.0969 24.7189 19.0969 24.7485C19.0969 24.7632 19.0969 24.7744 19.0969 24.7819C19.0969 24.7857 19.0969 24.7885 19.0969 24.7904C19.0969 24.7914 19.0969 24.7921 19.0969 24.7925C19.0969 24.7928 19.0969 24.793 19.0969 24.7931C19.0969 24.7932 19.0969 24.7933 19.5969 24.7933C20.0969 24.7933 20.0969 24.7932 20.0969 24.7931C20.0969 24.793 20.0969 24.7928 20.0969 24.7926C20.0969 24.7921 20.0969 24.7914 20.0969 24.7904C20.0969 24.7885 20.0969 24.7857 20.0969 24.782C20.0969 24.7745 20.0969 24.7633 20.0969 24.7485C20.0969 24.719 20.0969 24.6752 20.0969 24.6181C20.0969 24.5037 20.097 24.3359 20.097 24.122C20.0972 23.6943 20.0975 23.0824 20.098 22.3459C20.0992 20.8728 20.1014 18.9011 20.106 16.9066C20.1105 14.912 20.1173 12.8951 20.1275 11.3314C20.1378 9.74542 20.1519 8.67062 20.167 8.51777L19.6695 8.46847ZM19.5969 24.7933L19.1037 24.8755C19.1469 25.1344 19.1695 25.4015 19.1695 25.6772H19.6695H20.1695C20.1695 25.3466 20.1424 25.0244 20.0901 24.711L19.5969 24.7933ZM19.6695 25.6772L19.1695 25.6772C19.1695 27.5051 18.1755 29.1994 16.4903 30.4541C14.8051 31.709 12.4536 32.5 9.83473 32.5V33V33.5C12.6474 33.5 15.2133 32.6518 17.0875 31.2562C18.9618 29.8607 20.1695 27.8935 20.1695 25.6772L19.6695 25.6772ZM9.83473 33V32.5C7.26621 32.5 4.92658 31.3775 3.22497 29.7605C1.51612 28.1365 0.500005 26.0629 0.5 24.2126L0 24.2126L-0.5 24.2126C-0.499995 26.4066 0.685468 28.7267 2.5361 30.4853C4.39396 32.2509 6.97168 33.5 9.83473 33.5V33ZM0 24.2126H0.5C0.5 22.3955 1.47338 20.8986 3.12306 19.9226C4.78292 18.9405 7.12339 18.4954 9.76831 18.8499L9.83473 18.3543L9.90115 17.8587C7.08233 17.481 4.50544 17.9428 2.61387 19.0619C0.712117 20.187 -0.5 21.9854 -0.5 24.2126H0ZM9.83473 18.3543L9.76831 18.8499C12.7231 19.2459 15.2993 20.178 17.0016 21.5498L17.3154 21.1604L17.6291 20.7711C15.7343 19.2443 12.9605 18.2688 9.90115 17.8587L9.83473 18.3543ZM17.3154 21.1604H17.8154V0.719414H17.3154H16.8154V21.1604H17.3154Z" data-figma-gradient-fill="{&#34;type&#34;:&#34;GRADIENT_DIAMOND&#34;,&#34;stops&#34;:[{&#34;color&#34;:{&#34;r&#34;:0.20333041250705719,&#34;g&#34;:0.49393779039382935,&#34;b&#34;:0.68395054340362549,&#34;a&#34;:1.0},&#34;position&#34;:0.0},{&#34;color&#34;:{&#34;r&#34;:0.0039215688593685627,&#34;g&#34;:0.23921568691730499,&#34;b&#34;:0.39215686917304993,&#34;a&#34;:1.0},&#34;position&#34;:1.0}],&#34;stopsVar&#34;:[{&#34;color&#34;:{&#34;r&#34;:0.20333041250705719,&#34;g&#34;:0.49393779039382935,&#34;b&#34;:0.68395054340362549,&#34;a&#34;:1.0},&#34;position&#34;:0.0},{&#34;color&#34;:{&#34;r&#34;:0.0039215688593685627,&#34;g&#34;:0.23921568691730499,&#34;b&#34;:0.39215686917304993,&#34;a&#34;:1.0},&#34;position&#34;:1.0}],&#34;transform&#34;:{&#34;m00&#34;:-55.365901947021484,&#34;m01&#34;:-23.778186798095703,&#34;m02&#34;:67.254989624023438,&#34;m10&#34;:34.417377471923828,&#34;m11&#34;:-38.649650573730469,&#34;m12&#34;:7.2893247604370117},&#34;opacity&#34;:1.0,&#34;blendMode&#34;:&#34;NORMAL&#34;,&#34;visible&#34;:true}" mask="url(#path-1-inside-1_190_170)"/>
<defs>
<filter id="filter0_ii_190_170" x="-2" y="-4" width="27" height="39" filterUnits="userSpaceOnUse" color-interpolation-filters="sRGB">
<feFlood flood-opacity="0" result="BackgroundImageFix"/>
<feBlend mode="normal" in="SourceGraphic" in2="BackgroundImageFix" result="shape"/>
<feColorMatrix in="SourceAlpha" type="matrix" values="0 0 0 0 0 0 0 0 0 0 0 0 0 0 0 0 0 0 127 0" result="hardAlpha"/>
<feOffset dx="1" dy="2"/>
<feGaussianBlur stdDeviation="1.3"/>
<feComposite in2="hardAlpha" operator="arithmetic" k2="-1" k3="1"/>
<feColorMatrix type="matrix" values="0 0 0 0 0.53389 0 0 0 0 0.750003 0 0 0 0 0.8787 0 0 0 1 0"/>
<feBlend mode="normal" in2="shape" result="effect1_innerShadow_190_170"/>
<feColorMatrix in="SourceAlpha" type="matrix" values="0 0 0 0 0 0 0 0 0 0 0 0 0 0 0 0 0 0 127 0" result="hardAlpha"/>
<feOffset dx="-2" dy="-4"/>
<feGaussianBlur stdDeviation="2"/>
<feComposite in2="hardAlpha" operator="arithmetic" k2="-1" k3="1"/>
<feColorMatrix type="matrix" values="0 0 0 0 0.00392157 0 0 0 0 0.239216 0 0 0 0 0.392157 0 0 0 0.55 0"/>
<feBlend mode="normal" in2="effect1_innerShadow_190_170" result="effect2_innerShadow_190_170"/>
</filter>
<clipPath id="paint0_diamond_190_170_clip_path"><path d="M18.4401 0.146601L18.7438 -0.250604L18.7436 -0.250733L18.4401 0.146601ZM23.6762 6.63776L24.1508 6.48038L23.6762 6.63776ZM23.6762 17.622L23.1762 17.6219V17.622H23.6762ZM22.9157 18.6232H22.4157V19.1232H22.9157V18.6232ZM21.855 9.78643L22.3333 9.64102L22.3333 9.64093L21.855 9.78643ZM19.5969 24.7933H19.0969V24.8347L19.1037 24.8755L19.5969 24.7933ZM19.6695 25.6772L20.1695 25.6772V25.6772H19.6695ZM0 24.2126L-0.5 24.2126L-0.5 24.2126L0 24.2126ZM9.83473 18.3543L9.90115 17.8587L9.90115 17.8587L9.83473 18.3543ZM17.3154 21.1604L17.0016 21.5498L17.8154 22.2055V21.1604H17.3154ZM17.3154 0.719414H17.8154C17.8154 0.52044 18.0135 0.449929 18.1366 0.543935L18.4401 0.146601L18.7436 -0.250733C17.9292 -0.872898 16.8154 -0.26546 16.8154 0.719414H17.3154ZM18.4401 0.146601L18.1364 0.543807C18.9855 1.19301 20.0496 2.132 21.0055 3.22817C21.9651 4.32848 22.7922 5.56048 23.2016 6.79513L23.6762 6.63776L24.1508 6.48038C23.683 5.06968 22.7629 3.72193 21.7592 2.57092C20.7518 1.41577 19.6364 0.431858 18.7438 -0.250604L18.4401 0.146601ZM23.6762 6.63776L23.2016 6.79513C23.3582 7.26722 23.4496 8.12944 23.4838 9.22567C23.5174 10.3026 23.4951 11.5469 23.4498 12.7461C23.4045 13.944 23.3365 15.0903 23.2797 15.9701C23.2243 16.8281 23.1762 17.4747 23.1762 17.6219L23.6762 17.622L24.1762 17.6221C24.1762 17.5177 24.2192 16.94 24.2776 16.0345C24.3347 15.1508 24.4033 13.9945 24.4491 12.7838C24.4948 11.5745 24.518 10.3044 24.4833 9.19445C24.4492 8.10383 24.3585 7.10672 24.1508 6.48038L23.6762 6.63776ZM23.6762 17.622H23.1762C23.1762 17.7521 23.1238 17.8979 23.0404 18.0078C22.948 18.1295 22.8884 18.1232 22.9157 18.1232V18.6232V19.1232C23.3232 19.1232 23.6439 18.8665 23.8367 18.6127C24.0384 18.3471 24.1762 17.9924 24.1762 17.622H23.6762ZM22.9157 18.6232H23.4157C23.4157 18.1004 23.3391 16.4991 23.1682 14.72C22.9981 12.9484 22.7296 10.9447 22.3333 9.64102L21.855 9.78643L21.3766 9.93185C21.7408 11.1302 22.0027 13.0444 22.1728 14.8156C22.3422 16.5791 22.4157 18.1452 22.4157 18.6232H22.9157ZM21.855 9.78643L22.3333 9.64093C22.0988 8.86987 21.4583 8.26723 20.8901 7.95651C20.6092 7.8029 20.2801 7.68365 19.9723 7.69414C19.8125 7.69959 19.6192 7.74202 19.4533 7.87702C19.2777 8.02001 19.1918 8.21872 19.1719 8.41916L19.6695 8.46847L20.167 8.51777C20.1653 8.53515 20.1497 8.5996 20.0846 8.65258C20.0293 8.69756 19.9869 8.69422 20.0064 8.69356C20.0572 8.69183 20.2003 8.71901 20.4103 8.83387C20.824 9.06011 21.2399 9.4826 21.3766 9.93194L21.855 9.78643ZM19.6695 8.46847L19.1719 8.41916C19.1508 8.63245 19.1376 9.78133 19.1275 11.3249C19.1173 12.8907 19.1105 14.9093 19.106 16.9043C19.1014 18.8995 19.0992 20.8717 19.098 22.3451C19.0975 23.0818 19.0972 23.6938 19.097 24.1217C19.097 24.3356 19.0969 24.5035 19.0969 24.6179C19.0969 24.6751 19.0969 24.7189 19.0969 24.7485C19.0969 24.7632 19.0969 24.7744 19.0969 24.7819C19.0969 24.7857 19.0969 24.7885 19.0969 24.7904C19.0969 24.7914 19.0969 24.7921 19.0969 24.7925C19.0969 24.7928 19.0969 24.793 19.0969 24.7931C19.0969 24.7932 19.0969 24.7933 19.5969 24.7933C20.0969 24.7933 20.0969 24.7932 20.0969 24.7931C20.0969 24.793 20.0969 24.7928 20.0969 24.7926C20.0969 24.7921 20.0969 24.7914 20.0969 24.7904C20.0969 24.7885 20.0969 24.7857 20.0969 24.782C20.0969 24.7745 20.0969 24.7633 20.0969 24.7485C20.0969 24.719 20.0969 24.6752 20.0969 24.6181C20.0969 24.5037 20.097 24.3359 20.097 24.122C20.0972 23.6943 20.0975 23.0824 20.098 22.3459C20.0992 20.8728 20.1014 18.9011 20.106 16.9066C20.1105 14.912 20.1173 12.8951 20.1275 11.3314C20.1378 9.74542 20.1519 8.67062 20.167 8.51777L19.6695 8.46847ZM19.5969 24.7933L19.1037 24.8755C19.1469 25.1344 19.1695 25.4015 19.1695 25.6772H19.6695H20.1695C20.1695 25.3466 20.1424 25.0244 20.0901 24.711L19.5969 24.7933ZM19.6695 25.6772L19.1695 25.6772C19.1695 27.5051 18.1755 29.1994 16.4903 30.4541C14.8051 31.709 12.4536 32.5 9.83473 32.5V33V33.5C12.6474 33.5 15.2133 32.6518 17.0875 31.2562C18.9618 29.8607 20.1695 27.8935 20.1695 25.6772L19.6695 25.6772ZM9.83473 33V32.5C7.26621 32.5 4.92658 31.3775 3.22497 29.7605C1.51612 28.1365 0.500005 26.0629 0.5 24.2126L0 24.2126L-0.5 24.2126C-0.499995 26.4066 0.685468 28.7267 2.5361 30.4853C4.39396 32.2509 6.97168 33.5 9.83473 33.5V33ZM0 24.2126H0.5C0.5 22.3955 1.47338 20.8986 3.12306 19.9226C4.78292 18.9405 7.12339 18.4954 9.76831 18.8499L9.83473 18.3543L9.90115 17.8587C7.08233 17.481 4.50544 17.9428 2.61387 19.0619C0.712117 20.187 -0.5 21.9854 -0.5 24.2126H0ZM9.83473 18.3543L9.76831 18.8499C12.7231 19.2459 15.2993 20.178 17.0016 21.5498L17.3154 21.1604L17.6291 20.7711C15.7343 19.2443 12.9605 18.2688 9.90115 17.8587L9.83473 18.3543ZM17.3154 21.1604H17.8154V0.719414H17.3154H16.8154V21.1604H17.3154Z" mask="url(#path-1-inside-1_190_170)"/></clipPath><linearGradient id="paint0_diamond_190_170" x1="0" y1="0" x2="500" y2="500" gradientUnits="userSpaceOnUse">
<stop stop-color="#347EAE"/>
<stop offset="1" stop-color="#013D64"/>
</linearGradient>
</defs>
</svg>
