<svg width="31" height="27" viewBox="0 0 31 27" fill="none" xmlns="http://www.w3.org/2000/svg">
<path d="M0 8.86364C0 8.38666 0.447715 8 1 8H5C5.55228 8 6 8.38666 6 8.86364V26.1364C6 26.6133 5.55228 27 5 27H1C0.447715 27 0 26.6133 0 26.1364V8.86364Z" fill="url(#paint0_linear_191_209)"/>
<path d="M5 26.6542V27H1V26.6542H5ZM5.59961 26.1364V8.86364C5.59961 8.57745 5.33137 8.34579 5 8.34579H1C0.668629 8.34579 0.400391 8.57745 0.400391 8.86364V26.1364C0.400391 26.4225 0.668629 26.6542 1 26.6542V27C0.516573 27 0.112584 26.7039 0.0195312 26.3101L0 26.1364V8.86364C1.93278e-07 8.38666 0.447715 8 1 8H5L5.20117 8.01687C5.65711 8.09723 6 8.44613 6 8.86364V26.1364L5.98047 26.3101C5.90067 26.6478 5.59216 26.9142 5.20117 26.9831L5 27V26.6542C5.33137 26.6542 5.59961 26.4225 5.59961 26.1364Z" fill="#B2B2B2"/>
<path d="M14 17H23V27H14V17Z" fill="url(#paint1_linear_191_209)"/>
<path d="M6 0.863637C6 0.386664 6.3731 0 6.83333 0H30.1667C30.6269 0 31 0.386663 31 0.863636V18.1364C31 18.6133 30.6269 19 30.1667 19H6.83333C6.3731 19 6 18.6133 6 18.1364V0.863637Z" fill="url(#paint2_linear_191_209)"/>
<path d="M30.1667 18.6542V19H6.83333V18.6542H30.1667ZM30.6663 18.1364V0.863636C30.6663 0.577453 30.4428 0.345792 30.1667 0.345792H6.83333C6.55719 0.345792 6.33366 0.577452 6.33366 0.863636V18.1364C6.33366 18.4225 6.55719 18.6542 6.83333 18.6542V19C6.43048 19 6.09382 18.7039 6.01628 18.3101L6 18.1364V0.863636C6 0.386663 6.3731 2.43426e-08 6.83333 0H30.1667L30.3343 0.0168679C30.7143 0.0972318 31 0.446132 31 0.863636V18.1364L30.9837 18.3101C30.9172 18.6478 30.6601 18.9142 30.3343 18.9831L30.1667 19V18.6542C30.4428 18.6542 30.6663 18.4225 30.6663 18.1364Z" fill="#B2B2B2"/>
<path d="M8 2H29V17H8V2Z" fill="url(#paint3_linear_191_209)"/>
<path d="M17 2H29V12H17V2Z" fill="#84BEFF" fill-opacity="0.27"/>
<path d="M17 2H29V8H17V2Z" fill="#84BEFF" fill-opacity="0.27"/>
<path d="M21 2H29V8H21V2Z" fill="#84BEFF" fill-opacity="0.27"/>
<path d="M9 24C9 23.4477 9.38666 23 9.86364 23H27.1364C27.6133 23 28 23.4477 28 24V26C28 26.5523 27.6133 27 27.1364 27H9.86364C9.38666 27 9 26.5523 9 26V24Z" fill="url(#paint4_linear_191_209)"/>
<path d="M27.1364 26.5996V27H9.86364V26.5996H27.1364ZM27.6542 26V24C27.6542 23.6686 27.4225 23.4004 27.1364 23.4004H9.86364C9.57745 23.4004 9.34579 23.6686 9.34579 24V26C9.34579 26.3314 9.57745 26.5996 9.86364 26.5996V27C9.38666 27 9 26.5523 9 26V24C9 23.4477 9.38666 23 9.86364 23H27.1364L27.3101 23.0195C27.7039 23.1126 28 23.5166 28 24V26L27.9831 26.2012C27.9142 26.5922 27.6478 26.9007 27.3101 26.9805L27.1364 27V26.5996C27.4225 26.5996 27.6542 26.3314 27.6542 26Z" fill="#B2B2B2"/>
<g filter="url(#filter0_d_191_209)">
<path d="M5 11C5 11.5523 4.10457 12 3 12C1.89543 12 1 11.5523 1 11C1 10.4477 1.89543 10 3 10C4.10457 10 5 10.4477 5 11Z" fill="#59AC55"/>
</g>
<defs>
<filter id="filter0_d_191_209" x="0.8" y="9.8" width="4.4" height="2.4" filterUnits="userSpaceOnUse" color-interpolation-filters="sRGB">
<feFlood flood-opacity="0" result="BackgroundImageFix"/>
<feColorMatrix in="SourceAlpha" type="matrix" values="0 0 0 0 0 0 0 0 0 0 0 0 0 0 0 0 0 0 127 0" result="hardAlpha"/>
<feOffset/>
<feGaussianBlur stdDeviation="0.1"/>
<feComposite in2="hardAlpha" operator="out"/>
<feColorMatrix type="matrix" values="0 0 0 0 0.394938 0 0 0 0 0.692251 0 0 0 0 0.389898 0 0 0 1 0"/>
<feBlend mode="normal" in2="BackgroundImageFix" result="effect1_dropShadow_191_209"/>
<feBlend mode="normal" in="SourceGraphic" in2="effect1_dropShadow_191_209" result="shape"/>
</filter>
<linearGradient id="paint0_linear_191_209" x1="-9" y1="20.9545" x2="0.241531" y2="28.8948" gradientUnits="userSpaceOnUse">
<stop stop-color="#D9D9D9"/>
<stop offset="1" stop-color="#9C9C9C"/>
</linearGradient>
<linearGradient id="paint1_linear_191_209" x1="12.2" y1="22" x2="23.9" y2="22" gradientUnits="userSpaceOnUse">
<stop stop-color="#AFAFAF"/>
<stop offset="1" stop-color="#727272"/>
</linearGradient>
<linearGradient id="paint2_linear_191_209" x1="-0.666666" y1="21.5909" x2="29.0874" y2="7.81485" gradientUnits="userSpaceOnUse">
<stop stop-color="#D9D9D9"/>
<stop offset="1" stop-color="#BEBEBE"/>
</linearGradient>
<linearGradient id="paint3_linear_191_209" x1="13.6538" y1="20.3333" x2="36.2617" y2="-5.63674" gradientUnits="userSpaceOnUse">
<stop offset="0.0978962" stop-color="#013D64"/>
<stop offset="1" stop-color="#35B0FF"/>
</linearGradient>
<linearGradient id="paint4_linear_191_209" x1="2.95455" y1="25.6667" x2="8.1206" y2="15.5327" gradientUnits="userSpaceOnUse">
<stop stop-color="#D9D9D9"/>
<stop offset="1" stop-color="#A3A3A3"/>
</linearGradient>
</defs>
</svg>
