<svg width="5" height="3" viewBox="0 0 5 3" fill="none" xmlns="http://www.w3.org/2000/svg">
<mask id="path-1-inside-1_115_83" fill="white">
<path d="M0.887054 0C0.959009 -5.66505e-09 1.03442 0.0332583 1.10385 0.0957031L2.1312 1.02051L3.12436 0.100586C3.19529 0.0348778 3.27307 -1.08059e-08 3.34702 0H4.07846C4.15244 0.000352352 4.15876 0.154321 4.08725 0.21875L2.6644 1.5L4.08725 2.78125C4.15856 2.84569 4.15223 2.9994 4.07846 3H3.28647C3.21524 3 3.14049 2.96752 3.07162 2.90625L2.08139 2.02539L1.10678 2.9043C1.0374 2.96681 0.961926 2.99987 0.889984 3H0.244476C0.170936 2.99989 0.164143 2.84772 0.234711 2.78223L1.55502 1.55664L0.0511169 0.21875C-0.0207469 0.154819 -0.0151167 0.000626997 0.0589294 0H0.887054Z"/>
</mask>
<path d="M0.887054 0C0.959009 -5.66505e-09 1.03442 0.0332583 1.10385 0.0957031L2.1312 1.02051L3.12436 0.100586C3.19529 0.0348778 3.27307 -1.08059e-08 3.34702 0H4.07846C4.15244 0.000352352 4.15876 0.154321 4.08725 0.21875L2.6644 1.5L4.08725 2.78125C4.15856 2.84569 4.15223 2.9994 4.07846 3H3.28647C3.21524 3 3.14049 2.96752 3.07162 2.90625L2.08139 2.02539L1.10678 2.9043C1.0374 2.96681 0.961926 2.99987 0.889984 3H0.244476C0.170936 2.99989 0.164143 2.84772 0.234711 2.78223L1.55502 1.55664L0.0511169 0.21875C-0.0207469 0.154819 -0.0151167 0.000626997 0.0589294 0H0.887054Z" fill="white"/>
<path d="M0.887054 0L0.887054 0.05L0.887054 0.05L0.887054 0ZM1.10385 0.0957031L1.1373 0.0585419L1.13729 0.058528L1.10385 0.0957031ZM2.1312 1.02051L2.09774 1.05767L2.13168 1.08822L2.16517 1.05719L2.1312 1.02051ZM3.12436 0.100586L3.15834 0.137268L3.15834 0.137265L3.12436 0.100586ZM3.34702 0L3.34702 0.05H3.34702V0ZM4.07846 0L4.0787 -0.05H4.07846V0ZM4.08725 0.21875L4.12071 0.255906L4.12072 0.255896L4.08725 0.21875ZM2.6644 1.5L2.63094 1.46284L2.58968 1.5L2.63094 1.53716L2.6644 1.5ZM4.08725 2.78125L4.12077 2.74415L4.12071 2.74409L4.08725 2.78125ZM4.07846 3V3.05L4.07887 3.05L4.07846 3ZM3.28647 3V3.05V3ZM3.07162 2.90625L3.10486 2.86889L3.10486 2.86889L3.07162 2.90625ZM2.08139 2.02539L2.11462 1.98803L2.08116 1.95827L2.04791 1.98826L2.08139 2.02539ZM1.10678 2.9043L1.14025 2.94144L1.14027 2.94143L1.10678 2.9043ZM0.889984 3L0.889984 3.05L0.890075 3.05L0.889984 3ZM0.244476 3L0.244404 3.05H0.244476V3ZM0.234711 2.78223L0.268722 2.81888L0.268727 2.81887L0.234711 2.78223ZM1.55502 1.55664L1.58904 1.59329L1.62936 1.55585L1.58826 1.51928L1.55502 1.55664ZM0.0511169 0.21875L0.0178836 0.256107L0.0178837 0.256107L0.0511169 0.21875ZM0.0589294 0L0.0589294 -0.0500018L0.0585061 -0.0499982L0.0589294 0ZM0.887054 0L0.887054 0.05C0.943366 0.05 1.00738 0.0761822 1.07041 0.132878L1.10385 0.0957031L1.13729 0.058528C1.06147 -0.00966557 0.974652 -0.05 0.887054 -0.05L0.887054 0ZM1.10385 0.0957031L1.0704 0.132864L2.09774 1.05767L2.1312 1.02051L2.16465 0.983347L1.1373 0.0585419L1.10385 0.0957031ZM2.1312 1.02051L2.16517 1.05719L3.15834 0.137268L3.12436 0.100586L3.09038 0.0639039L2.09722 0.983826L2.1312 1.02051ZM3.12436 0.100586L3.15834 0.137265C3.22282 0.0775342 3.28902 0.05 3.34702 0.05L3.34702 0L3.34702 -0.05C3.25712 -0.05 3.16776 -0.00777859 3.09038 0.0639067L3.12436 0.100586ZM3.34702 0V0.05H4.07846V0V-0.05H3.34702V0ZM4.07846 0L4.07822 0.0499994C4.07838 0.0500002 4.07759 0.0499215 4.07684 0.0494609C4.07637 0.0491737 4.07729 0.0495662 4.07894 0.0521509C4.08262 0.0579226 4.08674 0.0697612 4.08745 0.0873715C4.08892 0.123686 4.07548 0.162055 4.05378 0.181604L4.08725 0.21875L4.12072 0.255896C4.17053 0.211017 4.18967 0.140186 4.18737 0.0833213C4.1862 0.0543417 4.17933 0.0235953 4.16326 -0.00161482C4.14624 -0.0283009 4.1176 -0.0498142 4.0787 -0.0499994L4.07846 0ZM4.08725 0.21875L4.05379 0.181594L2.63094 1.46284L2.6644 1.5L2.69786 1.53716L4.12071 0.255906L4.08725 0.21875ZM2.6644 1.5L2.63094 1.53716L4.05379 2.81841L4.08725 2.78125L4.12071 2.74409L2.69786 1.46284L2.6644 1.5ZM4.08725 2.78125L4.05373 2.81835C4.07536 2.8379 4.08877 2.87623 4.0873 2.91254C4.08658 2.93014 4.08247 2.942 4.07878 2.94781C4.07713 2.95041 4.07619 2.95082 4.07664 2.95055C4.07738 2.95009 4.07817 2.95 4.07805 2.95L4.07846 3L4.07887 3.05C4.11771 3.04968 4.14624 3.02809 4.16318 3.00145C4.17919 2.97625 4.18604 2.94555 4.18722 2.91659C4.18952 2.85978 4.17044 2.78904 4.12077 2.74415L4.08725 2.78125ZM4.07846 3V2.95H3.28647V3V3.05H4.07846V3ZM3.28647 3L3.28647 2.95C3.23067 2.95 3.16726 2.92441 3.10486 2.86889L3.07162 2.90625L3.03839 2.94361C3.11372 3.01062 3.19981 3.05 3.28647 3.05L3.28647 3ZM3.07162 2.90625L3.10486 2.86889L2.11462 1.98803L2.08139 2.02539L2.04816 2.06275L3.03839 2.94361L3.07162 2.90625ZM2.08139 2.02539L2.04791 1.98826L1.0733 2.86717L1.10678 2.9043L1.14027 2.94143L2.11488 2.06252L2.08139 2.02539ZM1.10678 2.9043L1.07331 2.86715C1.01042 2.92381 0.946333 2.9499 0.889893 2.95L0.889984 3L0.890075 3.05C0.977519 3.04984 1.06438 3.00981 1.14025 2.94144L1.10678 2.9043ZM0.889984 3V2.95H0.244476V3V3.05H0.889984V3ZM0.244476 3L0.244548 2.95C0.24439 2.95 0.245197 2.95007 0.245984 2.95055C0.246494 2.95086 0.245624 2.95052 0.244015 2.94803C0.240408 2.94244 0.236283 2.93083 0.235503 2.9134C0.233897 2.87752 0.247006 2.83903 0.268722 2.81888L0.234711 2.78223L0.200699 2.74558C0.151848 2.79091 0.133069 2.86125 0.135603 2.91787C0.136892 2.94667 0.143845 2.97723 0.159989 3.00225C0.177098 3.02876 0.205737 3.04994 0.244404 3.05L0.244476 3ZM0.234711 2.78223L0.268727 2.81887L1.58904 1.59329L1.55502 1.55664L1.52101 1.52L0.200694 2.74558L0.234711 2.78223ZM1.55502 1.55664L1.58826 1.51928L0.0843502 0.181393L0.0511169 0.21875L0.0178837 0.256107L1.52179 1.594L1.55502 1.55664ZM0.0511169 0.21875L0.0843503 0.181393C0.0626046 0.162048 0.0489642 0.123789 0.0502745 0.0874371C0.0509097 0.0698159 0.0549783 0.0579491 0.0586375 0.0521561C0.0602762 0.0495619 0.0611965 0.0491656 0.0607297 0.049455C0.0599809 0.0499192 0.0591905 0.0499996 0.0593528 0.0499982L0.0589294 0L0.0585061 -0.0499982C0.0195799 -0.0496686 -0.00899503 -0.0280238 -0.0259081 -0.00124832C-0.0418843 0.0240438 -0.0486154 0.0548383 -0.0496606 0.0838349C-0.051711 0.140719 -0.0322345 0.211521 0.0178836 0.256107L0.0511169 0.21875ZM0.0589294 0V0.05H0.887054V0V-0.05H0.0589294V0Z" fill="#595959" mask="url(#path-1-inside-1_115_83)"/>
</svg>
