<svg width="100" height="100" viewBox="0 0 100 100" fill="none" xmlns="http://www.w3.org/2000/svg">
<path d="M50 -3.05176e-05C77.6142 -3.05176e-05 100 22.3857 100 50C100 77.6142 77.6142 100 50 100C22.3857 100 -4.57764e-05 77.6142 -4.57764e-05 50C-4.57764e-05 22.3857 22.3857 -3.05176e-05 50 -3.05176e-05ZM50 12C29.0132 12 12 29.0132 12 50C12 70.9868 29.0132 88 50 88C70.9868 88 88 70.9868 88 50C88 29.0132 70.9868 12 50 12Z" fill="url(#paint0_radial_263_5)"/>
<path d="M50 -3.05176e-05C77.6142 -3.05176e-05 100 22.3857 100 50C100 77.6142 77.6142 100 50 100C22.3857 100 -4.57764e-05 77.6142 -4.57764e-05 50C-4.57764e-05 22.3857 22.3857 -3.05176e-05 50 -3.05176e-05ZM50 12C29.0132 12 12 29.0132 12 50C12 70.9868 29.0132 88 50 88C70.9868 88 88 70.9868 88 50C88 29.0132 70.9868 12 50 12Z" fill="url(#paint1_radial_263_5)"/>
<path d="M50 -3.05176e-05C77.6142 -3.05176e-05 100 22.3857 100 50C100 77.6142 77.6142 100 50 100C22.3857 100 -4.57764e-05 77.6142 -4.57764e-05 50C-4.57764e-05 22.3857 22.3857 -3.05176e-05 50 -3.05176e-05ZM50 12C29.0132 12 12 29.0132 12 50C12 70.9868 29.0132 88 50 88C70.9868 88 88 70.9868 88 50C88 29.0132 70.9868 12 50 12Z" fill="url(#paint2_radial_263_5)" fill-opacity="0.76"/>
<path d="M50 -3.05176e-05C77.6142 -3.05176e-05 100 22.3857 100 50C100 77.6142 77.6142 100 50 100C22.3857 100 -4.57764e-05 77.6142 -4.57764e-05 50C-4.57764e-05 22.3857 22.3857 -3.05176e-05 50 -3.05176e-05ZM50 12C29.0132 12 12 29.0132 12 50C12 70.9868 29.0132 88 50 88C70.9868 88 88 70.9868 88 50C88 29.0132 70.9868 12 50 12Z" fill="url(#paint3_radial_263_5)" fill-opacity="0.13"/>
<path d="M50 -3.05176e-05C77.6142 -3.05176e-05 100 22.3857 100 50C100 77.6142 77.6142 100 50 100C22.3857 100 -4.57764e-05 77.6142 -4.57764e-05 50C-4.57764e-05 22.3857 22.3857 -3.05176e-05 50 -3.05176e-05ZM50 12C29.0132 12 12 29.0132 12 50C12 70.9868 29.0132 88 50 88C70.9868 88 88 70.9868 88 50C88 29.0132 70.9868 12 50 12Z" fill="url(#paint4_radial_263_5)" fill-opacity="0.37"/>
<defs>
<radialGradient id="paint0_radial_263_5" cx="0" cy="0" r="1" gradientUnits="userSpaceOnUse" gradientTransform="translate(38 94.5) rotate(-87.5104) scale(69.0652 82.1672)">
<stop offset="0.471154" stop-color="#00A3BF"/>
<stop offset="0.923077" stop-color="#19547A"/>
</radialGradient>
<radialGradient id="paint1_radial_263_5" cx="0" cy="0" r="1" gradientUnits="userSpaceOnUse" gradientTransform="translate(15 75.5) rotate(3.24734) scale(70.6134 66.2192)">
<stop offset="0.125" stop-color="#DAFFFD"/>
<stop offset="0.360577" stop-color="#2BFFF4"/>
<stop offset="1" stop-color="white" stop-opacity="0"/>
</radialGradient>
<radialGradient id="paint2_radial_263_5" cx="0" cy="0" r="1" gradientUnits="userSpaceOnUse" gradientTransform="translate(16 24.5) rotate(-47.9108) scale(83.5464 47.4915)">
<stop offset="0.181592" stop-color="#DAFFFD"/>
<stop offset="1" stop-color="white" stop-opacity="0"/>
</radialGradient>
<radialGradient id="paint3_radial_263_5" cx="0" cy="0" r="1" gradientUnits="userSpaceOnUse" gradientTransform="translate(50 50) rotate(90) scale(50)">
<stop offset="0.894231" stop-color="white" stop-opacity="0"/>
<stop offset="1" stop-color="white"/>
</radialGradient>
<radialGradient id="paint4_radial_263_5" cx="0" cy="0" r="1" gradientUnits="userSpaceOnUse" gradientTransform="translate(50 50) rotate(90) scale(50)">
<stop offset="0.389423" stop-color="white"/>
<stop offset="0.788462" stop-color="white" stop-opacity="0"/>
</radialGradient>
</defs>
</svg>
