<svg width="1024" height="150" viewBox="0 0 1024 150" fill="none" xmlns="http://www.w3.org/2000/svg">
<g filter="url(#filter0_d_329_30)">
<path d="M56.2289 21.5C60.9577 21.5001 66.4017 22.7024 70.686 23.916C72.8234 24.5215 74.6627 25.127 75.9672 25.5811C76.6191 25.8079 77.1371 25.9969 77.4916 26.1289C77.5417 26.1475 77.5888 26.1653 77.6323 26.1816L67.3256 71.2363C67.3199 71.2342 67.3138 71.2326 67.308 71.2305C66.9474 71.0962 66.4226 70.9043 65.7631 70.6748C64.4444 70.2158 62.5862 69.604 60.4262 68.9922C56.1154 67.7711 50.5645 66.5381 45.6957 66.5381C40.8377 66.5381 33.9999 67.767 28.4086 68.9844C25.6062 69.5946 23.1049 70.2046 21.3041 70.6621C20.4204 70.8866 19.7051 71.0748 19.2055 71.208L29.4858 26.2725C29.6092 26.239 29.7714 26.1961 29.9682 26.1436C30.4655 26.0109 31.1874 25.8204 32.0834 25.5928C33.876 25.1373 36.3655 24.5299 39.1537 23.9229C44.7446 22.7055 51.4894 21.5 56.2289 21.5Z" fill="url(#paint0_radial_329_30)" stroke="url(#paint1_radial_329_30)"/>
<path d="M45.6963 74.1633C50.425 74.1634 55.869 75.3658 60.1533 76.5793C62.2907 77.1848 64.13 77.7904 65.4346 78.2444C66.0865 78.4713 66.6045 78.6602 66.959 78.7922C67.009 78.8109 67.0562 78.8287 67.0996 78.845L56.793 123.9C56.7873 123.898 56.7812 123.896 56.7754 123.894C56.4148 123.76 55.8899 123.568 55.2305 123.338C53.9117 122.879 52.0535 122.267 49.8936 121.656C45.5827 120.434 40.0319 119.201 35.1631 119.201C30.3051 119.201 23.4673 120.43 17.876 121.648C15.0736 122.258 12.5722 122.868 10.7715 123.325C9.88777 123.55 9.17249 123.738 8.67285 123.871L18.9531 78.9358C19.0765 78.9023 19.2388 78.8594 19.4355 78.8069C19.9329 78.6742 20.6548 78.4838 21.5508 78.2561C23.3434 77.8006 25.8329 77.1933 28.6211 76.5862C34.212 75.3689 40.9567 74.1633 45.6963 74.1633Z" fill="url(#paint2_linear_329_30)" stroke="url(#paint3_radial_329_30)"/>
<path d="M84.4076 129.338C79.6789 129.338 74.2348 128.135 69.9506 126.922C67.8132 126.316 65.9738 125.711 64.6693 125.257C64.0174 125.03 63.4994 124.841 63.1449 124.709C63.0948 124.69 63.0477 124.672 63.0043 124.656L73.3109 79.6013C73.3166 79.6034 73.3227 79.605 73.3285 79.6072C73.6891 79.7415 74.214 79.9333 74.8734 80.1628C76.1922 80.6218 78.0504 81.2336 80.2103 81.8455C84.5211 83.0666 90.072 84.2996 94.9408 84.2996C99.7988 84.2995 106.637 83.0707 112.228 81.8533C115.03 81.2431 117.532 80.6331 119.332 80.1755C120.216 79.951 120.931 79.7628 121.431 79.6296L111.151 124.565C111.027 124.599 110.865 124.642 110.668 124.694C110.171 124.827 109.449 125.017 108.553 125.245C106.761 125.7 104.271 126.308 101.483 126.915C95.8919 128.132 89.1472 129.338 84.4076 129.338Z" fill="url(#paint4_linear_329_30)" stroke="url(#paint5_radial_329_30)"/>
<path d="M94.9403 76.6743C90.2116 76.6742 84.7676 75.4718 80.4833 74.2582C78.3459 73.6528 76.5066 73.0472 75.202 72.5932C74.5501 72.3663 74.0321 72.1774 73.6776 72.0453C73.6276 72.0267 73.5804 72.0089 73.537 71.9926L83.8436 26.9379C83.8493 26.94 83.8554 26.9416 83.8612 26.9438C84.2218 27.0781 84.7467 27.2699 85.4061 27.4995C86.7249 27.9584 88.5831 28.5702 90.743 29.1821C95.0539 30.4032 100.605 31.6362 105.474 31.6362C110.332 31.6362 117.169 30.4073 122.761 29.1899C125.563 28.5797 128.064 27.9697 129.865 27.5121C130.749 27.2876 131.464 27.0994 131.964 26.9662L121.683 71.9018C121.56 71.9353 121.398 71.9782 121.201 72.0307C120.704 72.1634 119.982 72.3538 119.086 72.5815C117.293 73.0369 114.804 73.6443 112.016 74.2514C106.425 75.4687 99.6799 76.6743 94.9403 76.6743Z" fill="url(#paint6_linear_329_30)" stroke="url(#paint7_radial_329_30)"/>
</g>
<path d="M184.625 94.9375L204.375 28H210.562L205.562 47.875L184.5 119H178.562L184.625 94.9375ZM161.688 28L178.312 94.3125L183.312 119H177.125L153.812 28H161.688ZM237.188 94.3125L253.562 28H261.438L238.188 119H232L237.188 94.3125ZM211.25 28L230.75 94.9375L236.75 119H230.812L210.188 47.875L205.125 28H211.25ZM282.875 51.375V119H275.438V51.375H282.875ZM274.125 31.8125C274.125 30.3958 274.562 29.2083 275.438 28.25C276.354 27.25 277.604 26.75 279.188 26.75C280.771 26.75 282.021 27.25 282.938 28.25C283.896 29.2083 284.375 30.3958 284.375 31.8125C284.375 33.1875 283.896 34.375 282.938 35.375C282.021 36.3333 280.771 36.8125 279.188 36.8125C277.604 36.8125 276.354 36.3333 275.438 35.375C274.562 34.375 274.125 33.1875 274.125 31.8125ZM310.75 65.8125V119H303.312V51.375H310.438L310.75 65.8125ZM309.062 81L305.75 79.125C306 75.125 306.812 71.375 308.188 67.875C309.562 64.375 311.417 61.2917 313.75 58.625C316.125 55.9583 318.896 53.875 322.062 52.375C325.271 50.875 328.812 50.125 332.688 50.125C336.062 50.125 339.083 50.5833 341.75 51.5C344.417 52.4167 346.688 53.875 348.562 55.875C350.438 57.875 351.854 60.4375 352.812 63.5625C353.812 66.6875 354.312 70.5 354.312 75V119H346.812V74.9375C346.812 70.2708 346.167 66.625 344.875 64C343.583 61.3333 341.75 59.4375 339.375 58.3125C337 57.1875 334.188 56.625 330.938 56.625C327.354 56.625 324.208 57.4167 321.5 59C318.833 60.5417 316.583 62.5625 314.75 65.0625C312.958 67.5208 311.583 70.1667 310.625 73C309.667 75.7917 309.146 78.4583 309.062 81ZM417.625 105.875V23H425.125V119H418.125L417.625 105.875ZM370.688 85.875V84.5625C370.688 79.3125 371.292 74.5833 372.5 70.375C373.708 66.125 375.438 62.5 377.688 59.5C379.979 56.4583 382.729 54.1458 385.938 52.5625C389.146 50.9375 392.771 50.125 396.812 50.125C400.771 50.125 404.271 50.7708 407.312 52.0625C410.354 53.3542 412.958 55.2083 415.125 57.625C417.333 60.0417 419.104 62.9167 420.438 66.25C421.812 69.5833 422.812 73.2917 423.438 77.375V94.0625C422.938 97.8958 422.021 101.417 420.688 104.625C419.354 107.792 417.583 110.562 415.375 112.938C413.167 115.271 410.5 117.083 407.375 118.375C404.292 119.625 400.729 120.25 396.688 120.25C392.688 120.25 389.083 119.417 385.875 117.75C382.667 116.083 379.938 113.729 377.688 110.688C375.438 107.604 373.708 103.958 372.5 99.75C371.292 95.5417 370.688 90.9167 370.688 85.875ZM378.188 84.5625V85.875C378.188 89.8333 378.583 93.5 379.375 96.875C380.167 100.25 381.375 103.188 383 105.688C384.625 108.188 386.688 110.146 389.188 111.562C391.688 112.979 394.646 113.688 398.062 113.688C402.354 113.688 405.958 112.875 408.875 111.25C411.792 109.583 414.125 107.396 415.875 104.688C417.625 101.938 418.896 98.9375 419.688 95.6875V76.25C419.188 74.0417 418.458 71.7917 417.5 69.5C416.542 67.2083 415.229 65.1042 413.562 63.1875C411.938 61.2292 409.854 59.6667 407.312 58.5C404.812 57.2917 401.771 56.6875 398.188 56.6875C394.729 56.6875 391.75 57.3958 389.25 58.8125C386.75 60.2292 384.667 62.2083 383 64.75C381.375 67.25 380.167 70.1875 379.375 73.5625C378.583 76.9375 378.188 80.6042 378.188 84.5625ZM440.688 86.25V84.1875C440.688 79.2708 441.396 74.7292 442.812 70.5625C444.229 66.3958 446.25 62.7917 448.875 59.75C451.542 56.7083 454.729 54.3542 458.438 52.6875C462.146 50.9792 466.271 50.125 470.812 50.125C475.396 50.125 479.542 50.9792 483.25 52.6875C486.958 54.3542 490.146 56.7083 492.812 59.75C495.479 62.7917 497.521 66.3958 498.938 70.5625C500.354 74.7292 501.062 79.2708 501.062 84.1875V86.25C501.062 91.1667 500.354 95.7083 498.938 99.875C497.521 104 495.479 107.583 492.812 110.625C490.188 113.667 487.021 116.042 483.312 117.75C479.604 119.417 475.479 120.25 470.938 120.25C466.354 120.25 462.208 119.417 458.5 117.75C454.792 116.042 451.604 113.667 448.938 110.625C446.271 107.583 444.229 104 442.812 99.875C441.396 95.7083 440.688 91.1667 440.688 86.25ZM448.125 84.1875V86.25C448.125 89.9583 448.625 93.4792 449.625 96.8125C450.625 100.104 452.083 103.042 454 105.625C455.917 108.167 458.292 110.167 461.125 111.625C463.958 113.083 467.229 113.812 470.938 113.812C474.604 113.812 477.833 113.083 480.625 111.625C483.458 110.167 485.833 108.167 487.75 105.625C489.667 103.042 491.104 100.104 492.062 96.8125C493.062 93.4792 493.562 89.9583 493.562 86.25V84.1875C493.562 80.5208 493.062 77.0417 492.062 73.75C491.104 70.4583 489.646 67.5208 487.688 64.9375C485.771 62.3542 483.396 60.3125 480.562 58.8125C477.729 57.3125 474.479 56.5625 470.812 56.5625C467.146 56.5625 463.896 57.3125 461.062 58.8125C458.271 60.3125 455.896 62.3542 453.938 64.9375C452.021 67.5208 450.562 70.4583 449.562 73.75C448.604 77.0417 448.125 80.5208 448.125 84.1875ZM535.312 103.188L551.625 51.375H556.875L553.75 65.3125L536.688 119H531.438L535.312 103.188ZM518.375 51.375L532.688 103.5L535.75 119H530.312L510.688 51.375H518.375ZM577.188 103.312L591.125 51.375H598.812L579.188 119H573.812L577.188 103.312ZM557.938 51.375L574 102.75L578.062 119H572.812L555.375 65.25L552.438 51.375H557.938ZM653.688 101.75C653.688 99.9167 653.229 98.1042 652.312 96.3125C651.396 94.5208 649.625 92.875 647 91.375C644.417 89.875 640.604 88.6042 635.562 87.5625C631.812 86.7292 628.458 85.7917 625.5 84.75C622.583 83.7083 620.125 82.4583 618.125 81C616.125 79.5417 614.604 77.7917 613.562 75.75C612.521 73.7083 612 71.2917 612 68.5C612 66 612.542 63.6458 613.625 61.4375C614.75 59.1875 616.333 57.2292 618.375 55.5625C620.458 53.8542 622.958 52.5208 625.875 51.5625C628.833 50.6042 632.146 50.125 635.812 50.125C641.021 50.125 645.479 51.0208 649.188 52.8125C652.938 54.5625 655.792 56.9583 657.75 60C659.75 63.0417 660.75 66.4792 660.75 70.3125H653.312C653.312 67.9792 652.625 65.7708 651.25 63.6875C649.917 61.6042 647.938 59.8958 645.312 58.5625C642.729 57.2292 639.562 56.5625 635.812 56.5625C631.938 56.5625 628.792 57.1458 626.375 58.3125C623.958 59.4792 622.188 60.9583 621.062 62.75C619.979 64.5417 619.438 66.3958 619.438 68.3125C619.438 69.8125 619.667 71.1875 620.125 72.4375C620.625 73.6458 621.5 74.7708 622.75 75.8125C624.042 76.8542 625.875 77.8333 628.25 78.75C630.625 79.6667 633.708 80.5625 637.5 81.4375C642.958 82.6458 647.417 84.125 650.875 85.875C654.375 87.5833 656.958 89.7083 658.625 92.25C660.292 94.75 661.125 97.7917 661.125 101.375C661.125 104.167 660.542 106.729 659.375 109.062C658.208 111.354 656.521 113.333 654.312 115C652.146 116.667 649.521 117.958 646.438 118.875C643.396 119.792 639.979 120.25 636.188 120.25C630.479 120.25 625.646 119.312 621.688 117.438C617.771 115.521 614.792 113.021 612.75 109.938C610.75 106.812 609.75 103.5 609.75 100H617.188C617.438 103.5 618.542 106.271 620.5 108.312C622.458 110.312 624.854 111.729 627.688 112.562C630.562 113.396 633.396 113.812 636.188 113.812C640.021 113.812 643.229 113.25 645.812 112.125C648.396 111 650.354 109.521 651.688 107.688C653.021 105.854 653.688 103.875 653.688 101.75ZM764.125 28V32.3125L725.25 119H717.5L756.125 34.4375H704.312V28H764.125Z" fill="white"/>
<path d="M868.579 90.1792V92.9258H834.045V90.1792H868.579ZM835.071 65.6797V119H832.104V65.6797H835.071ZM870.703 65.6797V119H867.737V65.6797H870.703ZM881.104 99.8838V98.4922C881.104 95.5869 881.519 92.9258 882.349 90.5088C883.203 88.0918 884.399 86.0044 885.938 84.2466C887.476 82.4644 889.307 81.085 891.431 80.1084C893.579 79.1318 895.959 78.6436 898.572 78.6436C901.184 78.6436 903.564 79.1318 905.713 80.1084C907.861 81.085 909.705 82.4644 911.243 84.2466C912.805 86.0044 914.001 88.0918 914.832 90.5088C915.662 92.9258 916.077 95.5869 916.077 98.4922V99.8838C916.077 102.789 915.662 105.45 914.832 107.867C914.001 110.284 912.817 112.384 911.279 114.166C909.741 115.924 907.898 117.291 905.75 118.268C903.625 119.244 901.257 119.732 898.645 119.732C896.008 119.732 893.616 119.244 891.467 118.268C889.343 117.291 887.5 115.924 885.938 114.166C884.399 112.384 883.203 110.284 882.349 107.867C881.519 105.45 881.104 102.789 881.104 99.8838ZM884.033 98.4922V99.8838C884.033 102.179 884.351 104.364 884.985 106.439C885.645 108.49 886.597 110.321 887.842 111.932C889.087 113.519 890.613 114.776 892.419 115.704C894.226 116.607 896.301 117.059 898.645 117.059C900.94 117.059 902.991 116.607 904.797 115.704C906.604 114.776 908.118 113.519 909.338 111.932C910.583 110.321 911.523 108.49 912.158 106.439C912.817 104.364 913.147 102.179 913.147 99.8838V98.4922C913.147 96.2461 912.817 94.0977 912.158 92.0469C911.523 89.9961 910.583 88.165 909.338 86.5537C908.093 84.9424 906.567 83.6729 904.761 82.7451C902.954 81.793 900.891 81.3169 898.572 81.3169C896.252 81.3169 894.189 81.793 892.383 82.7451C890.601 83.6729 889.075 84.9424 887.805 86.5537C886.56 88.165 885.62 89.9961 884.985 92.0469C884.351 94.0977 884.033 96.2461 884.033 98.4922ZM928.088 87.7622V119H925.159V79.376H928.015L928.088 87.7622ZM927.612 96.1484L926.147 94.4639C926.343 92.3643 926.831 90.3623 927.612 88.458C928.418 86.5537 929.48 84.8691 930.798 83.4043C932.141 81.9395 933.716 80.7798 935.522 79.9253C937.354 79.0708 939.392 78.6436 941.638 78.6436C943.616 78.6436 945.386 78.9121 946.948 79.4492C948.535 79.9619 949.878 80.7798 950.977 81.9028C952.075 83.0015 952.917 84.4419 953.503 86.2241C954.089 88.0063 954.382 90.1426 954.382 92.6328V119H951.453V92.7061C951.453 89.7275 951.013 87.4204 950.134 85.7847C949.255 84.1489 948.035 83.0015 946.472 82.3423C944.91 81.6587 943.115 81.3169 941.089 81.3169C938.696 81.3169 936.658 81.8418 934.973 82.8916C933.289 83.917 931.909 85.2231 930.835 86.8101C929.785 88.3726 929.004 89.9961 928.491 91.6807C927.979 93.3652 927.686 94.8545 927.612 96.1484ZM954.346 92.8892L952.368 92.1934C952.563 90.4111 953.064 88.7144 953.87 87.103C954.7 85.4673 955.786 84.0269 957.129 82.7817C958.472 81.5122 960.046 80.5112 961.853 79.7788C963.684 79.022 965.71 78.6436 967.932 78.6436C969.958 78.6436 971.765 78.9243 973.352 79.4858C974.963 80.0229 976.306 80.8896 977.38 82.0859C978.479 83.2578 979.321 84.7715 979.907 86.627C980.493 88.458 980.786 90.6797 980.786 93.292V119H977.856V93.2554C977.856 90.1304 977.417 87.7012 976.538 85.9678C975.659 84.2344 974.438 83.0259 972.876 82.3423C971.313 81.6343 969.507 81.2925 967.456 81.3169C965.283 81.3413 963.391 81.7441 961.78 82.5254C960.168 83.3066 958.826 84.2954 957.751 85.4917C956.677 86.688 955.859 87.9453 955.298 89.2637C954.736 90.5576 954.419 91.7661 954.346 92.8892ZM1007.12 119.732C1004.63 119.732 1002.32 119.256 1000.2 118.304C998.071 117.328 996.216 115.973 994.629 114.239C993.042 112.481 991.797 110.406 990.894 108.014C990.015 105.621 989.575 102.997 989.575 100.14V98.5288C989.575 95.5747 990.015 92.8892 990.894 90.4722C991.797 88.0308 993.018 85.9312 994.556 84.1733C996.094 82.3911 997.864 81.0239 999.866 80.0718C1001.89 79.1196 1004.05 78.6436 1006.35 78.6436C1008.67 78.6436 1010.77 79.0708 1012.65 79.9253C1014.53 80.7798 1016.14 81.9761 1017.48 83.5142C1018.82 85.0522 1019.85 86.8833 1020.56 89.0073C1021.26 91.1313 1021.62 93.4751 1021.62 96.0386V98.4922H991.406V95.8188H1018.73V95.3428C1018.7 92.8525 1018.19 90.5454 1017.19 88.4214C1016.21 86.2974 1014.81 84.5884 1012.98 83.2944C1011.15 81.9761 1008.94 81.3169 1006.35 81.3169C1004.27 81.3169 1002.38 81.7563 1000.67 82.6353C998.987 83.5142 997.534 84.7349 996.313 86.2974C995.093 87.8354 994.153 89.6543 993.494 91.7539C992.834 93.8291 992.505 96.0874 992.505 98.5288V100.14C992.505 102.484 992.871 104.681 993.604 106.732C994.336 108.783 995.361 110.589 996.68 112.152C997.998 113.69 999.548 114.898 1001.33 115.777C1003.11 116.656 1005.07 117.096 1007.19 117.096C1009.48 117.096 1011.58 116.693 1013.49 115.887C1015.39 115.082 1017.13 113.666 1018.69 111.639L1020.59 113.067C1019.71 114.337 1018.65 115.472 1017.41 116.473C1016.16 117.474 1014.69 118.268 1012.98 118.854C1011.29 119.439 1009.34 119.732 1007.12 119.732Z" fill="white"/>
<defs>
<filter id="filter0_d_329_30" x="0.2" y="17.2" width="140.237" height="124.438" filterUnits="userSpaceOnUse" color-interpolation-filters="sRGB">
<feFlood flood-opacity="0" result="BackgroundImageFix"/>
<feColorMatrix in="SourceAlpha" type="matrix" values="0 0 0 0 0 0 0 0 0 0 0 0 0 0 0 0 0 0 127 0" result="hardAlpha"/>
<feOffset dy="4"/>
<feGaussianBlur stdDeviation="3.9"/>
<feComposite in2="hardAlpha" operator="out"/>
<feColorMatrix type="matrix" values="0 0 0 0 0 0 0 0 0 0 0 0 0 0 0 0 0 0 0.25 0"/>
<feBlend mode="normal" in2="BackgroundImageFix" result="effect1_dropShadow_329_30"/>
<feBlend mode="normal" in="SourceGraphic" in2="effect1_dropShadow_329_30" result="shape"/>
</filter>
<radialGradient id="paint0_radial_329_30" cx="0" cy="0" r="1" gradientUnits="userSpaceOnUse" gradientTransform="translate(74.7069 85.0737) rotate(-127.104) scale(85.842 85.822)">
<stop offset="0.25871" stop-color="#FFD877"/>
<stop offset="0.591346" stop-color="#F67940"/>
<stop offset="0.783654" stop-color="#D43A26"/>
</radialGradient>
<radialGradient id="paint1_radial_329_30" cx="0" cy="0" r="1" gradientUnits="userSpaceOnUse" gradientTransform="translate(33.4539 15.7337) rotate(59.6419) scale(71.2038 83.4803)">
<stop offset="0.493599" stop-color="#BF3421"/>
<stop offset="1" stop-color="#FFD877"/>
</radialGradient>
<linearGradient id="paint2_linear_329_30" x1="20.2881" y1="124.571" x2="71.196" y2="76.2965" gradientUnits="userSpaceOnUse">
<stop offset="0.298077" stop-color="#0B67C9"/>
<stop offset="0.673077" stop-color="#599DE6"/>
<stop offset="1" stop-color="#D2E8FF"/>
</linearGradient>
<radialGradient id="paint3_radial_329_30" cx="0" cy="0" r="1" gradientUnits="userSpaceOnUse" gradientTransform="translate(9.75544 123.694) rotate(-37.6476) scale(77.5978 90.9767)">
<stop offset="0.4595" stop-color="#0954A4"/>
<stop offset="1" stop-color="#D2E8FF"/>
</radialGradient>
<linearGradient id="paint4_linear_329_30" x1="71.196" y1="75.4189" x2="122.104" y2="126.327" gradientUnits="userSpaceOnUse">
<stop stop-color="#FFFED7"/>
<stop offset="0.519231" stop-color="#FFCD28"/>
<stop offset="0.908654" stop-color="#FF9B29"/>
</linearGradient>
<radialGradient id="paint5_radial_329_30" cx="0" cy="0" r="1" gradientUnits="userSpaceOnUse" gradientTransform="translate(113.327 126.327) rotate(-131.186) scale(65.3122 76.573)">
<stop offset="0.335809" stop-color="#D6AB1B"/>
<stop offset="1" stop-color="#FFDE8C"/>
</radialGradient>
<linearGradient id="paint6_linear_329_30" x1="122.982" y1="25.3886" x2="70.3183" y2="77.1743" gradientUnits="userSpaceOnUse">
<stop offset="0.450009" stop-color="#43B30F"/>
<stop offset="0.777692" stop-color="#ACF689"/>
</linearGradient>
<radialGradient id="paint7_radial_329_30" cx="0" cy="0" r="1" gradientUnits="userSpaceOnUse" gradientTransform="translate(130.003 28.0218) rotate(141.033) scale(76.7643 89.9996)">
<stop offset="0.562282" stop-color="#327F0F"/>
<stop offset="1" stop-color="#ACF689"/>
</radialGradient>
</defs>
</svg>
