<svg width="233" height="207" viewBox="0 0 233 207" fill="none" xmlns="http://www.w3.org/2000/svg">
<path d="M63.2727 39.3043C63.2727 39.3043 86.0144 33 98.4401 33C110.866 33 126.909 39.3043 126.909 39.3043L113.273 98.909C113.273 98.909 97.2295 92.6047 84.8038 92.6047C72.378 92.6047 49.6364 98.909 49.6364 98.909L63.2727 39.3043Z" fill="white"/>
<path d="M49.6363 107.486C49.6363 107.486 72.378 101.182 84.8038 101.182C97.2295 101.182 113.273 107.486 113.273 107.486L99.6363 167.091C99.6363 167.091 83.5932 160.786 71.1674 160.786C58.7417 160.786 36 167.091 36 167.091L49.6363 107.486Z" fill="white"/>
<path d="M170.091 167.605C170.091 167.605 147.349 173.909 134.923 173.909C122.498 173.909 106.454 167.605 106.454 167.605L120.091 108C120.091 108 136.134 114.304 148.56 114.304C160.985 114.304 183.727 108 183.727 108L170.091 167.605Z" fill="white"/>
<path d="M183.727 99.4228C183.727 99.4228 160.985 105.727 148.56 105.727C136.134 105.727 120.091 99.4228 120.091 99.4228L133.727 39.8181C133.727 39.8181 149.77 46.1225 162.196 46.1225C174.622 46.1225 197.363 39.8181 197.363 39.8181L183.727 99.4228Z" fill="white"/>
</svg>
