<svg width="14" height="14" viewBox="0 0 14 14" fill="none" xmlns="http://www.w3.org/2000/svg">
<path d="M5.9969 0.787145C6.19266 0.978121 6.19122 1.28665 6.01393 1.49408C5.0748 2.59281 4.37765 4.23157 3.9564 6.22812L5.85213 6.38056C6.04443 6.39602 6.14746 6.60876 6.03761 6.7635L3.2362 10.7096C3.12634 10.8643 2.88596 10.845 2.80352 10.6748L0.701176 6.33488C0.618743 6.16471 0.756012 5.97129 0.948292 5.98668L2.95083 6.14693C3.39378 3.98188 4.16442 2.09669 5.30236 0.800296C5.48242 0.595155 5.80115 0.596169 5.9969 0.787145Z" fill="#47A0D5"/>
<path d="M8.35661 13.5031C8.16086 13.3122 8.16229 13.0036 8.33959 12.7962C9.27871 11.6975 9.97587 10.0587 10.3971 8.06216L8.50138 7.90972C8.30909 7.89426 8.20605 7.68152 8.31591 7.52678L11.1173 3.58072C11.2272 3.42596 11.4676 3.44527 11.55 3.61546L13.6523 7.9554C13.7348 8.12557 13.5975 8.31899 13.4052 8.30361L11.4027 8.14335C10.9597 10.3084 10.1891 12.1936 9.05116 13.49C8.87109 13.6951 8.55236 13.6941 8.35661 13.5031Z" fill="#47A0D5"/>
</svg>
