<svg width="7" height="7" viewBox="0 0 7 7" fill="none" xmlns="http://www.w3.org/2000/svg">
<path d="M6.52935 0.520485L6.86919 0.545876C7.01981 0.557512 7.03706 0.843673 6.89458 0.968727L4.17778 3.35154L6.87212 5.79392C7.01609 5.92444 6.99116 6.21463 6.83599 6.21482H6.61626C6.45601 6.21474 6.29041 6.1441 6.14067 6.01267L3.6436 3.82127L1.14751 6.01267C0.997693 6.14417 0.831281 6.21482 0.670947 6.21482H0.452197C0.296886 6.21482 0.272042 5.92448 0.416064 5.79392L3.10942 3.35154L0.393603 0.968727C0.25104 0.843597 0.26812 0.557185 0.418994 0.545876L0.758838 0.520485C0.935746 0.507224 1.12224 0.582012 1.28813 0.732399L3.6436 2.86716L6.00005 0.732399C6.16593 0.582054 6.35246 0.507226 6.52935 0.520485Z" fill="url(#paint0_linear_98_70)"/>
<defs>
<linearGradient id="paint0_linear_98_70" x1="6.58776" y1="-0.497841" x2="0.0840931" y2="5.62121" gradientUnits="userSpaceOnUse">
<stop stop-color="#EA5656"/>
<stop offset="0.543976" stop-color="#9B0000"/>
<stop offset="1" stop-color="#530000"/>
</linearGradient>
</defs>
</svg>
